<svg xmlns="http://www.w3.org/2000/svg" width="655.359" height="655.359" fill-rule="evenodd" clip-rule="evenodd" image-rendering="optimizeQuality" shape-rendering="geometricPrecision" text-rendering="geometricPrecision" viewBox="0 0 6.827 6.827"><path fill="#f4f4f4" d="M3.74678 3.65427c0.148098,-0.0793386 0.270008,-0.225594 0.320346,-0.440925 0.082689,-0.0251142 0.140531,-0.0997677 0.169886,-0.185634 0.0123386,-0.0360866 0.0196063,-0.0748504 0.0213701,-0.112575 0.00181102,-0.0387835 -0.00248031,-0.0770472 -0.0133346,-0.11102 -0.0166496,-0.0520984 -0.0466024,-0.0936772 -0.0911614,-0.115559 -0.000787402,-0.158224 -0.0482244,-0.533606 -0.463272,-0.678169l6.29921e-005 -0.00023622c-0.00189764,-0.000661417 -0.00380315,-0.00124016 -0.0057126,-0.00175197 -0.0462244,-0.0150906 -0.401315,-0.123287 -0.463693,0.0948622 -0.179598,0.00354331 -0.286598,0.0912205 -0.349634,0.216445 -0.0553465,0.109949 -0.0717087,0.247264 -0.0741299,0.376839 -0.0430157,0.0187638 -0.0737677,0.0518031 -0.0934724,0.093378 -0.0167362,0.0353189 -0.024,0.0763228 -0.0228622,0.118669 0.00106299,0.0394646 0.00931102,0.0804016 0.0237913,0.118736 0.0299173,0.0791772 0.0873031,0.15078 0.165157,0.183283 0.0417953,0.207646 0.158071,0.354177 0.303291,0.436421 0.0878701,0.0497638 0.186331,0.0756693 0.285378,0.0770827 0.0987402,0.00140945 0.198063,-0.0216693 0.287988,-0.0698465z"/><path fill="#c2e4f8" d="M4.55802 3.06886c.0355472.165165.129571.282142.246555.348398.0720433.0408031.152803.0620433.234043.0632008.080937.00115748.162374-.0177677.236114-.0572756.119161-.0638386.217559-.180291.259902-.350949.0662047-.0239409.112516-.0849449.136343-.15465.010252-.0299961.0162953-.0622874.0177677-.0937795.00151969-.0325472-.00212992-.0648268-.0113425-.0936535-.0135-.0422638-.0370551-.0766496-.0715709-.0968386-.00275197-.134413-.0481063-.427657-.377925-.542539l.0000629921-.00023622c-.0019685-.000685039-.00394488-.00128346-.0059252-.00181102-.0419134-.0135315-.324398-.0976063-.384224.0750433-.142035.00651181-.22772.0785315-.278906.180209-.043689.0867874-.0575945.193638-.0602402.295236-.0328858.0169882-.0568543.0441535-.0727126.0776142-.0143858.0303622-.0206378.0654173-.0196693.101469.000893701.0331693.00778346.0674843.0198819.0995079.0241496.0639094.0698071.12202.131846.151055zM2.09578 3.42319c.119161-.0638386.217563-.180287.259906-.350949.0661969-.0239409.112508-.0849409.136339-.15465.010252-.0299961.0162953-.0622874.0177677-.0937795.00151969-.0325472-.00212992-.0648268-.0113425-.0936535-.0135-.0422598-.0370591-.0766535-.0715709-.0968386-.00275197-.134409-.0481063-.427657-.377921-.542539l.0000629921-.00023622c-.0019685-.000685039-.00394488-.00128346-.0059252-.00181102-.0419134-.0135315-.324402-.0976063-.384228.0750433-.142035.00651181-.22772.0785315-.278906.180209-.043689.0867874-.0575945.193638-.0602402.295236-.0328858.0169882-.0568543.0441535-.0727126.0776142-.0143858.0303622-.0206378.0654173-.0196693.101469.000893701.0331693.00778346.0674843.0198819.0995079.0241496.0639055.0698071.122016.131846.151055.0355472.165165.129571.282142.246555.348398.0720433.0408031.152803.0620433.234043.0632008.080937.00115748.162374-.0177677.236114-.0572756z"/><path fill="#0a93e2" fill-rule="nonzero" d="M3.27821 2.26494c-.142772-.0130984-.221669.0424134-.264071.126642-.0501378.0996063-.0589567.240083-.0574252.366874l.000307087-.00000393701c.000531496.0441772-.0348543.0804291-.0790315.0809606l-.00105118 0c-.0146339.00167323-.0238543.00876772-.0285276.0186378-.00585827.0123661-.00835039.0286378-.0078622.0467953.000562992.0210394.00535039.0438819.0137913.0662323.018563.049126.0533622.0917795.0967205.0976575l-.010626.079063.010752-.0792756c.0384528.00521654.0667953.0369528.0691024.0742598.0254528.177638.116531.300181.23187.365504.0643622.0364488.136295.0554213.208504.0564528.0725118.00103543.145331-.0158465.211114-.0510906.120039-.064311.217602-.191169.249374-.383941l.078752.012811-.0789331-.0130118c.00684646-.0415236.0445276-.0702795.0857677-.0666969.0352756-.00155906.0633228-.0404213.0790197-.0863504.00770079-.0225276.0122087-.046.0132441-.0681969.000988189-.0211417-.00088189-.0405276-.00583071-.0560197-.00401969-.0125787-.0104685-.0213425-.0190827-.0210591l.00000787402.000259843c-.0441535.0015748-.0812283-.0329409-.0828031-.0770945-.000192913-.00539764.00015748-.0106811.000996063-.015815.00430315-.0433268.0330945-.442157-.353528-.577283l-.0000275591.0000748031-.000641732-.000216535-.0000472441.000137795c-.00120866-.00042126-.00240157-.000874016-.0035748-.00134252-.0343425-.0112638-.266283-.0834803-.262957.0234724l.00026378-.00000787402c.00150394.0441535-.0330748.0811732-.0772283.0826772-.00557874.000188976-.0110472-.000200787-.0163386-.0011063zm-.406575.0547677c.0630354-.125224.170035-.212902.349634-.216445.062378-.21815.417469-.109953.463693-.0948622.00190945.000511811.00381496.00109055.0057126.00175197l-.026315.0755472.026252-.075311c.415047.144563.462484.519945.463272.678169.0445591.0218819.0745118.0634606.0911614.115559.0108543.0339724.0151457.0722362.0133346.11102-.00176378.0377244-.0090315.0764882-.0213701.112575-.0293543.0858661-.0871969.16052-.169886.185634-.0503386.215331-.172248.361587-.320346.440925-.0899252.0481772-.189248.0712559-.287988.0698465-.0990472-.00141339-.197508-.0273189-.285378-.0770827-.14522-.0822441-.261496-.228776-.303291-.436421-.0778543-.0325039-.13524-.104106-.165157-.183283-.0144803-.0383346-.0227283-.0792717-.0237913-.118736-.0011378-.0423465.00612598-.0833504.0228622-.118669.0197047-.0415748.0504567-.0746142.0934724-.093378.00242126-.129575.0187835-.26689.0741299-.376839zM3.8596 3.75837c.220224.0640787.41111.198744.546177.377555.132827.175846.211803.394295.211803.630201l0 .00244882c0 .0247598-.0100709.0471929-.0262835.0634055-.0162126.0162126-.0386457.0262835-.0634055.0262835l-2.22912 0c-.0247598 0-.0471929-.0100709-.0634055-.0262835-.0162126-.0162126-.0262835-.0386457-.0262835-.0634055l0-.00244882c0-.25322.0912087-.486445.242457-.668504.153646-.184949.369343-.316752.614307-.362638l-.0000354331-.00019685c.0299291-.0056063.0590827.00624803.0769803.0283661.00714173.00801575.0136614.0149134.0195472.0206929.0804843.0790276.18535.120862.291461.124055.106138.00319685.21365-.0322756.299386-.107823.00900787-.00793701.0168268-.0152717.0233937-.0219528l-.000161417-.000161417c.0223307-.022748.0549213-.0293189.0831811-.0195945zm.418673.473807c-.106575-.141091-.253996-.249764-.424209-.307965-.11628.100311-.261295.147382-.404642.143067-.143929-.00433465-.286098-.0605079-.395756-.166583-.190646.0453386-.358047.152457-.479622.298799-.114287.137567-.188012.310091-.202378.498768l2.08332 0c-.0132717-.173917-.0771024-.334213-.176717-.466087zM4.89302 2.32447c-.103917-.00915354-.16111.030811-.191602.0913819-.0382205.0759252-.0449213.184598-.0437362.282933l.000307087-.00000393701c.000531496.0441772-.0348543.0804291-.0790315.0809606l-.00019685 0c-.00451969.000748031-.00721654.00266929-.00842126.0052126-.00350787.00740551-.00498819.0177283-.00466929.0295945.000393701.014748.00382283.0309685.00988189.0470039.0127756.033811.0357087.0630276.0632953.0667677l-.010626.079063.010752-.0792756c.0384488.0052126.0667874.0369409.0691024.0742441.0196142.134394.0883465.226937.175248.276157.0485354.0274882.102764.0417953.157169.0425709.0547126.000783465.109642-.0119449.15924-.0385197.0908228-.0486575.164724-.145142.188957-.292165l.078752.012811-.0789331-.0130118c.00679134-.0412087.0439567-.0698307.0848268-.0667677.0194685-.00181102.0361772-.0272126.0463898-.0570945.00561417-.0164291.00889764-.0334331.00964173-.0494016.00069685-.0149055-.000531496-.0283031-.00383858-.0386535-.000933071-.00291732.00317717-.00516142.00125984-.00511417l.00000787402.000259843c-.0441535.00157087-.0812283-.0329449-.0827992-.0770984-.000188976-.00534646.00015748-.0105866.000976378-.0156772.00352362-.0369488.0228465-.336925-.268917-.439012l-.0000275591.0000748031-.000641732-.000220472-.0000472441.000141732c-.00120866-.00042126-.00240157-.000874016-.00357874-.00134646-.028189-.00923622-.187205-.0586811-.185504.0026063l.000259843-.00000787402c.00150394.0441535-.0330709.0811772-.0772244.0826811-.00555512.000188976-.011-.000192913-.0162717-.00109449zm-.334106.0195079c.051185-.101677.13687-.173697.278906-.180209.0598268-.17265.342311-.0885748.384224-.0750433.00198031.000527559.00395669.00112598.0059252.00181102l-.026315.0755472.026252-.075311c.329819.114882.375173.408126.377925.542539.0345157.020189.0580709.0545748.0715709.0968386.0092126.0288268.0128622.0611063.0113425.0936535-.00147244.0314921-.00751575.0637835-.0177677.0937795-.0238268.0697047-.0701378.130709-.136343.15465-.0423425.170657-.14074.28711-.259902.350949-.0737402.0395079-.155177.0584331-.236114.0572756-.0812402-.00115748-.162-.0223976-.234043-.0632008-.116984-.0662559-.211008-.183232-.246555-.348398-.0620394-.0290354-.107697-.0871457-.131846-.151055-.0120984-.0320236-.0189882-.0663386-.0198819-.0995079-.000968504-.0360512.00528346-.0711063.0196693-.101469.0158583-.0334606.0398268-.060626.0727126-.0776142.00264567-.101598.0165512-.208449.0602402-.295236z"/><path fill="#0a93e2" fill-rule="nonzero" d="M5.36162 3.47528c.17763.0518465.331594.160547.440563.304811.107335.142098.17115.318602.17115.509193l0 .00193701c0 .0238465-.00982283.0456929-.0256929.0616732l-.00015748.000153543-.0000787402.0000826772.000161417.000161417c-.00463386.00461811-.00968898.00855118-.0150472.0117992-.0136339.00873622-.0297323.0138071-.0468622.0138071l-1.46898 0c-.0323583 0-.0602244-.0192126-.0728268-.0468543-.0280787-.0497717-.0610354-.0968504-.0982441-.140598-.038815-.0456457-.0816969-.0870787-.127937-.123594l-.000216535.000275591c-.0302047-.0238504-.0385787-.0651063-.0221339-.0982638.0537677-.131114.13963-.246075.247689-.334969.108272-.0890709.23876-.151957.381496-.178693l-.0000354331-.00019685c.0299055-.00560236.0590433.00622835.0769409.0283189.00537402.00602362.0101102.0110394.0142087.0150669.0606693.0595748.139713.0911142.219689.0935236.0800039.00240945.161059-.0243386.225717-.0813071.00705906-.00622047.0129803-.011752.017689-.0165472l-.000161417-.00015748c.0223031-.0227165.0548307-.0292953.0830669-.019622zm.313059.401063c-.0805945-.106693-.191378-.189421-.319291-.235126-.0940669.0779646-.209906.114524-.324457.111075-.115142-.00347244-.228906-.047374-.317878-.130256-.0999764.0251654-.191417.0723307-.268791.135984-.0745551.0613307-.136122.13802-.17978.22511.0369094.0328031.0713386.0679606.103.105189.034689.0407874.0664055.084437.0947795.130579l1.34747 0c-.0131102-.127606-.0614488-.245118-.135051-.342555zm.209079.412941l-.000019685 0 .00191732.00192126 0-.000015748-.00189764-.00190551zm.00192913.00193701l-.000015748 0 .00540551.00542126-.00538976-.00542126zm-.00194882-.00193701l.000019685 0-.0459764-.0462323-.00011811.000023622.0460748.0462087zm.00194882.00193701l-.0000314961-.0000314961 0 .000015748.000015748.000015748.000015748 0zM1.71407 2.32447c-.103913-.00915354-.16111.030811-.191602.0913819-.0382205.0759252-.0449213.184598-.0437362.282933l.000307087-.00000393701c.000531496.0441772-.0348543.0804291-.0790315.0809606l-.00019685 0c-.00451969.000748031-.00721654.00266929-.00842126.0052126-.00350787.00740551-.00498819.0177283-.00466929.0295945.000393701.014748.00382283.0309685.00988189.0470039.0127756.033811.0357087.0630276.0632953.0667677l-.010626.079063.010752-.0792756c.0384488.0052126.0667874.0369409.0691024.0742441.0196142.134394.0883465.226937.175248.276157.0485354.0274882.102764.0417953.157169.0425709.0547126.000783465.109642-.0119449.15924-.0385197.0908228-.0486575.164724-.145142.188957-.292165l.078752.012811-.0789331-.0130118c.00679134-.0412087.0439567-.0698307.0848268-.0667677.0194685-.00181102.0361772-.0272126.0463898-.0570945.00561417-.0164291.00889764-.0334331.00964173-.0494016.00069685-.0149055-.000531496-.0283031-.00383858-.0386535-.000933071-.00291732.00317323-.00516142.00125984-.00511417l.00000787402.000259843c-.0441535.00157087-.0812283-.0329449-.0827992-.0770984-.000188976-.00534646.00015748-.0105866.000976378-.0156772.00352362-.0369488.0228465-.336925-.268913-.439012l-.0000275591.0000748031-.000641732-.000220472-.0000472441.000141732c-.00120866-.00042126-.00240157-.000874016-.00357874-.00134646-.028189-.00923228-.187209-.0586772-.185508.0026063l.000259843-.00000787402c.00150394.0441535-.0330709.0811772-.0772244.0826811-.00555512.000188976-.011-.000192913-.0162717-.00109449zm-.334106.0195079c.051185-.101677.13687-.173697.278906-.180209.0598268-.17265.342315-.0885748.384228-.0750433.00198031.000527559.00395669.00112598.0059252.00181102l-.026315.0755472.026252-.075311c.329815.114882.375169.40813.377921.542539.0345118.020185.0580709.0545787.0715709.0968386.0092126.0288268.0128622.0611063.0113425.0936535-.00147244.0314921-.00751575.0637835-.0177677.0937795-.0238307.0697087-.0701417.130709-.136339.15465-.0423425.170661-.140744.28711-.259906.350949-.0737402.0395079-.155177.0584331-.236114.0572756-.0812402-.00115748-.162-.0223976-.234043-.0632008-.116984-.0662559-.211008-.183232-.246555-.348398-.0620394-.0290394-.107697-.0871496-.131846-.151055-.0120984-.0320236-.0189882-.0663386-.0198819-.0995079-.000968504-.0360512.00528346-.0711063.0196693-.101469.0158583-.0334606.0398268-.060626.0727126-.0776142.00264567-.101598.0165512-.208449.0602402-.295236z"/><path fill="#0a93e2" fill-rule="nonzero" d="M2.18263 3.47526c0.124138,0.0362323 0.236945,0.100547 0.331071,0.185594 0.0955276,0.086311 0.171425,0.193831 0.21998,0.314819l0.000192913 -7.87402e-005c0.0144685,0.0360551 0.000818898,0.0764252 -0.0305669,0.0968307 -0.0446732,0.0358504 -0.0857362,0.0757362 -0.122571,0.119039 -0.038,0.0446732 -0.0719134,0.0936063 -0.101047,0.146118l0.000228346 0.000125984c-0.0148346,0.0267402 -0.0427362,0.0416496 -0.0713189,0.041189l-1.4676 0c-0.023874,0 -0.045689,-0.00982283 -0.0616693,-0.0256929l-0.000153543 -0.00015748 -8.26772e-005 -7.87402e-005 -0.000161417 0.000161417c-0.00461811,-0.00463386 -0.00855118,-0.00968898 -0.0117992,-0.0150472 -0.00873622,-0.0136339 -0.0138071,-0.0297323 -0.0138071,-0.0468622l0 -0.00193701c0,-0.204543 0.0737126,-0.39298 0.195949,-0.540118 0.124122,-0.149409 0.298382,-0.255886 0.496276,-0.292965l-3.54331e-005 -0.00019685c0.0299213,-0.0056063 0.0590748,0.00623622 0.0769724,0.0283465 0.0053622,0.00601181 0.0100866,0.0110197 0.0141811,0.0150394 0.0606732,0.0595787 0.139717,0.0911142 0.219689,0.0935236 0.0800039,0.00240551 0.161059,-0.0243425 0.22572,-0.081311 0.00705512,-0.00622047 0.0129843,-0.0117598 0.0176811,-0.0165394l-0.000161417 -0.000161417c0.0222913,-0.0227047 0.0548071,-0.0292953 0.0830315,-0.0196417zm0.224197 0.30372c-0.0662362,-0.0598465 -0.144335,-0.107083 -0.230374,-0.137776 -0.0940709,0.0779685 -0.209913,0.114531 -0.324472,0.111087 -0.115134,-0.00347244 -0.228894,-0.0473701 -0.31787,-0.130252 -0.143874,0.0362205 -0.270142,0.118031 -0.362331,0.229 -0.0847283,0.101992 -0.140626,0.22889 -0.154862,0.367858l1.34751 0c0.0282008,-0.0457087 0.0600079,-0.0893543 0.0950591,-0.130559 0.0318504,-0.0374409 0.066185,-0.0725827 0.102724,-0.105138 -0.0388189,-0.0775079 -0.0917638,-0.146736 -0.155382,-0.20422zm-1.46583 0.512276l0 -1.5748e-005 -0.00541732 0.00540157 0.00541732 -0.00538583zm0 0l3.54331e-005 -3.54331e-005 -1.5748e-005 0 -1.9685e-005 1.9685e-005 0 1.5748e-005zm3.54331e-005 -3.54331e-005l0.00194488 -0.00193701 -1.9685e-005 0 -0.00194094 0.00193701 1.5748e-005 0zm0.00194488 -0.00193701l0.0461929 -0.045937 -2.3622e-005 -0.00011811 -0.046189 0.0460551 1.9685e-005 0z"/><path fill="#f4f4f4" d="M2.40683 3.77898c-0.0662362,-0.0598465 -0.144335,-0.107083 -0.230374,-0.137776 -0.187996,0.155815 -0.464232,0.146748 -0.642343,-0.0191654 -0.278579,0.0701339 -0.487728,0.309217 -0.517193,0.596858l1.3475 -3.93701e-006c0.0261929,-0.0424882 0.0553268,-0.0830118 0.0871142,-0.121272 0.0339646,-0.0408819 0.0709567,-0.0791693 0.11063,-0.114504 -0.038815,-0.0774764 -0.0917441,-0.146673 -0.155339,-0.204138z"/><path fill="#c2e4f8" d="M3.05367 3.9007c-0.125118,0.0297559 -0.240224,0.0861181 -0.338937,0.162717 -0.00348425,0.00331102 -0.00729921,0.00633465 -0.0114173,0.00901181 -0.0108504,0.00870866 -0.0214882,0.0176535 -0.0319016,0.0268268 -0.0349882,0.0308346 -0.0675551,0.0643583 -0.0973661,0.100244 -0.0131929,0.0158819 -0.0258465,0.0322283 -0.0379331,0.0490118 -0.020374,0.0283543 -0.0392283,0.0580906 -0.0564173,0.0890748l0.000228346 0.000125984c-0.00105906,0.00191339 -0.00218898,0.00376378 -0.00337795,0.00555512 -0.0582559,0.107055 -0.0951575,0.227327 -0.104878,0.355l2.08332 0c-0.00978346,-0.128217 -0.0470472,-0.249031 -0.10587,-0.356512 -0.0017126,-0.00269291 -0.00326772,-0.00549606 -0.00465354,-0.0083937 -0.0197992,-0.0352717 -0.041937,-0.0690669 -0.0661811,-0.101189 -0.0104882,-0.0138701 -0.0213858,-0.0274488 -0.0326772,-0.0407244 -9.84252e-005,-0.000114173 -0.00019685,-0.000228346 -0.000291339,-0.00034252 -0.0384173,-0.0451142 -0.0812323,-0.086378 -0.12776,-0.123106l-0.000102362 0.000129921c-0.00131496,-0.00103543 -0.00258661,-0.0021063 -0.00381496,-0.00320866 -0.0774213,-0.0604252 -0.164976,-0.108358 -0.259575,-0.140705 -0.11628,0.100311 -0.261295,0.147382 -0.404642,0.143067 -0.143929,-0.00433465 -0.286098,-0.0605079 -0.395756,-0.166583z"/><path fill="#f4f4f4" d="M4.71305 3.62204c-0.194913,0.049063 -0.358831,0.182244 -0.448461,0.36087 0.0519173,0.0462205 0.0992402,0.0974921 0.141185,0.15302 0.0201732,0.0267047 0.0391024,0.0543898 0.0567008,0.0829724l1.34725 0c-0.0131102,-0.127606 -0.0614488,-0.245118 -0.135051,-0.342555 -0.0805945,-0.106693 -0.191378,-0.189421 -0.319291,-0.235126 -0.187992,0.155811 -0.464236,0.146724 -0.642335,-0.0191811z"/><rect width="6.827" height="6.827" fill="none"/></svg>