<svg xmlns="http://www.w3.org/2000/svg" enable-background="new 0 0 512 512" viewBox="0 0 512 512"><path fill="#00cbf6" d="M238.616 497.939c-19.477 0-35.323-15.846-35.323-35.323 0-19.51 15.846-35.385 35.323-35.385s35.323 15.875 35.323 35.385C273.939 482.093 258.093 497.939 238.616 497.939zM238.616 437.897c-13.596 0-24.656 11.088-24.656 24.719 0 13.596 11.059 24.656 24.656 24.656 13.597 0 24.656-11.059 24.656-24.656C263.273 448.987 252.213 437.897 238.616 437.897zM436.137 497.939c-19.477 0-35.323-15.846-35.323-35.323 0-19.51 15.846-35.385 35.323-35.385s35.323 15.875 35.323 35.385C471.46 482.093 455.613 497.939 436.137 497.939zM436.137 437.897c-13.596 0-24.656 11.088-24.656 24.719 0 13.596 11.059 24.656 24.656 24.656 13.596 0 24.656-11.059 24.656-24.656C460.792 448.987 449.733 437.897 436.137 437.897z"/><path fill="#0635c9" d="M503.644,118.009c-6.289-7.557-15.151-12.128-24.956-12.875C184.198,82.692,120.264,77.89,106.143,76.863l-9.159-24.077c-5.168-13.597-18.315-22.751-32.832-23.016v10.666c10.118,0.262,19.257,6.656,22.863,16.141c7.014,17.391,1.547,1.139,91.931,276.118l-5.546,5.735c-12.33,12.696-16.042,30.815-9.68,47.302c6.669,17.154,24.164,28.679,43.531,28.679h26.031v48.174c0,2.945,2.388,5.334,5.334,5.334c2.945,0,5.334-2.388,5.334-5.334V414.41h186.853v48.174c0,2.945,2.388,5.334,5.334,5.334c2.945,0,5.334-2.388,5.334-5.334V414.41h25.995c9.086,0,16.479-7.393,16.479-16.479s-7.393-16.479-16.479-16.479H205.491c-7.372,0-10.161-5.49-10.893-7.299c-0.724-1.662-2.68-7.505,2.466-12.838l26.502-27.468l244.644-35.873c16.295-2.386,28.896-15.492,30.643-31.869l12.938-121.166C512.836,135.139,509.944,125.573,503.644,118.009z M189.388,353.909c-7.735,8.016-7.435,17.909-4.627,24.367c2.703,6.693,9.57,13.843,20.732,13.843h261.973c3.206,0,5.812,2.606,5.812,5.812s-2.606,5.812-5.812,5.812c-47.559,0-174.78,0-228.744,0c-0.037-0.001-0.067-0.021-0.104-0.021c-0.037,0-0.067,0.021-0.104,0.021h-31.262c-15.002,0-28.503-8.792-33.583-21.864c-4.841-12.544-2.013-26.346,7.391-36.029l6.504-6.725l18.738-2.747L189.388,353.909z M501.186,143.808l-12.938,121.166c-1.232,11.534-10.109,20.766-21.586,22.447c-60.91,8.927,148.788-21.807-277.979,40.741L109.583,87.805c32.237,2.391,162.77,12.303,368.293,27.964c6.903,0.526,13.143,3.745,17.57,9.063C499.884,130.162,501.923,136.901,501.186,143.808z"/><path fill="#00cbf6" d="M55.523,56.014H20.976C9.409,56.014,0,46.605,0,35.037s9.409-20.976,20.976-20.976h34.547c7.349,0,13.328,5.979,13.328,13.328v15.294C68.851,50.034,62.873,56.014,55.523,56.014z M20.976,24.727c-5.685,0-10.31,4.625-10.31,10.31s4.625,10.31,10.31,10.31h34.547c1.469,0,2.662-1.195,2.662-2.664V27.389c0-1.469-1.193-2.662-2.662-2.662C55.523,24.727,20.976,24.727,20.976,24.727z"/></svg>