<svg xmlns="http://www.w3.org/2000/svg" enable-background="new 0 0 512 512" viewBox="0 0 512 512"><path fill="#0635c9" d="M366.2,501.5v-50c0-8.7-7-15.7-15.7-15.7h-27.8v-96.6c9.9,2.9,19.5,7,28.5,12.1v-2.5h12.8
			c-0.3-1.3-1.1-2.6-2.3-3.3c-37.3-23.6-66-21.1-94.6-22.1v-19.7c29.9-15.4,51.6-43.7,58.1-78c13.1-1.5,23.3-12.8,23.3-26.3
			c0-8.1-3.7-15.4-9.5-20.3l4.3-40.1c6.1-67.7-31.9-102.7-66-100.6c-9.7-27.2-38.6-41.5-76.7-37.7c-64.4,6.4-113,61.4-113,127.7
			c0.3,54.7-0.6,52.8,0.7,55.2c-3.3,4.4-5.3,9.8-5.3,15.7c0,13.6,10.2,24.8,23.4,26.3c6.4,34.1,28,62.3,58,78v19.7h-17.9
			c-78.5,0-144,64.7-144,144v39.5c0,2.9,2.3,5.2,5.2,5.2H414v-10.5H366.2z M293.5,334.1c6.5,0.4,12.3,1.2,18.8,2.5v99.2h-18.8V334.1
			z M98.1,128.4C98.1,67.5,142.8,17,201.9,11c35.1-3.5,60,9.3,66.9,34.3c0.7,2.5,3.2,4.2,5.8,3.8c34.2-4.7,63.6,32.6,58.5,88.8
			l-3.9,36c-0.6-0.2-1.3-0.4-1.9-0.6c-2.5-40.8-36.4-73.2-77.8-73.2h-67.2c-41.4,0-75.3,32.4-77.8,73.2c-2.3,0.4-4.4,1.3-6.4,2.3
			V128.4z M116.1,219.7c-0.4-2.8-2.9-4.7-5.7-4.4c-7.9,1-16.8-6.1-16.8-15.9c0-8.9,7.2-16.1,16.1-16.1c2.9,0,5.2-2.3,5.2-5.2
			c0-37.2,30.3-67.5,67.5-67.5h67.2c37.2,0,67.5,30.3,67.5,67.5c0,2.9,2.3,5.2,5.2,5.2c8.8,0,16,7.2,16,16.1c0,8.8-7.2,16-15.8,16
			c-3.2-0.6-6.2,1.2-6.7,4.3C298.5,335.1,132.8,331.9,116.1,219.7z M256.9,308.4v23.3c0,22.3-18,40.9-40.9,40.9
			c-22.6,0-40.9-18.4-40.9-40.9v-23.4C201.7,319,230.7,318.7,256.9,308.4z M164.6,333.8c1.1,27.4,23.6,49.3,51.3,49.3
			c27.6,0,50.2-21.7,51.3-49.3H283c-1.1,36.1-30.8,65.1-67,65.1c-36.3,0-66-29-67.1-65.1H164.6z M148.8,370.4
			c13.4,23.2,38.5,38.9,67.2,38.9s53.7-15.7,67.1-38.9v65.4H148.8V370.4z M119.5,336.6c6.6-1.4,12.7-2.2,18.8-2.6v101.8h-18.8V336.6
			z M64.8,451.6v50H13.1v-34.3c0-60,40.7-111.6,95.9-128v96.6H80.5C71.8,435.9,64.8,442.9,64.8,451.6z M355.8,501.5H75.2v-50
			c0-2.9,2.4-5.2,5.2-5.2h270.1c3,0,5.3,2.4,5.3,5.2V501.5z"/><path fill="#0635c9" d="M181.5 257.5c-2 2.1-1.9 5.4.2 7.4 19.2 18.3 49.2 18.3 68.4 0 2.1-2 2.2-5.3.2-7.4s-5.3-2.2-7.4-.2c-15.1 14.4-38.8 14.4-53.9 0C186.8 255.3 183.5 255.4 181.5 257.5zM247 192.3c2.7 1.1 5.7-.2 6.8-2.8 1.7-4.1 7.5-4.1 9.2 0 1.1 2.7 4.2 3.9 6.8 2.8 2.7-1.1 3.9-4.2 2.8-6.8-5.3-12.7-23.3-12.6-28.5 0C243.1 188.1 244.3 191.2 247 192.3zM178 189.4c1.1 2.7 4.2 3.9 6.8 2.8 2.7-1.1 3.9-4.2 2.8-6.8-5.3-12.8-23.3-12.5-28.5 0-1.1 2.7.2 5.7 2.8 6.8 2.7 1.1 5.7-.2 6.8-2.8C170.5 185.4 176.3 185.4 178 189.4z"/><path fill="#00cbf6" d="M493.6,344.6H359.8c-8.6,0-15.7,7-15.7,15.7v47.1c0,8.6,7,15.7,15.7,15.7h46.4v83.7c0,2.9,2.3,5.2,5.2,5.2
			H442c2.9,0,5.2-2.3,5.2-5.2v-83.7h46.4c8.6,0,15.7-7,15.7-15.7v-47.1C509.3,351.6,502.3,344.6,493.6,344.6z M436.8,501.5h-20.1
			V423h20.1V501.5z M498.9,407.4c0,2.9-2.3,5.2-5.2,5.2c-43.7,0-82.8,0-133.9,0c-2.9,0-5.2-2.3-5.2-5.2v-47.1c0-2.9,2.3-5.2,5.2-5.2
			h133.9c2.9,0,5.2,2.3,5.2,5.2V407.4z"/><path fill="#00cbf6" d="M477.4,378.6H376.1c-2.9,0-5.2,2.3-5.2,5.2s2.3,5.2,5.2,5.2h101.3c2.9,0,5.2-2.3,5.2-5.2
			S480.2,378.6,477.4,378.6z"/></svg>