<svg xmlns="http://www.w3.org/2000/svg" width="138" height="99" viewBox="0 0 138 99"><g fill="none" fill-rule="evenodd" transform="translate(2 2)"><g transform="translate(30)"><path fill="#C4E1F7" stroke="#1485E0" stroke-width="4" d="M104 69c0 2.8-2.2 5-5 5H5c-2.8 0-5-2.2-5-5V5c0-2.8 2.2-5 5-5h94c2.8 0 5 2.2 5 5v64z"/><path fill="#1485E0" d="M1 9h102v14H1z"/><path fill="#FFF" d="M8 31h88v10H8z"/><g stroke="#1485E0" stroke-width="2" transform="translate(8 50)"><path d="M88 0h-1"/><path stroke-dasharray="2 2" d="M85 0H2"/><path d="M1 0H0"/></g><g stroke="#1485E0" stroke-width="2" transform="translate(8 56)"><path d="M88 0h-1"/><path stroke-dasharray="2 2" d="M85 0H2"/><path d="M1 0H0"/></g></g><g transform="translate(0 21)"><path fill="#FFF" stroke="#1485E0" stroke-width="4" d="M104 69c0 2.8-2.2 5-5 5H5c-2.8 0-5-2.2-5-5V5c0-2.8 2.2-5 5-5h94c2.8 0 5 2.2 5 5v64z"/><g transform="translate(31 22)"><circle cx="29.2" cy="14" r="11.7" fill="#C4E1F7"/><circle cx="12.5" cy="14" r="11.7" fill="#1485E0"/><path fill="#FFF" d="M14.2 2.3c6.5 0 11.7 5.2 11.7 11.7 0 6.5-5.2 11.7-11.7 11.7-6.5 0-11.7-5.2-11.7-11.7 0-6.5 5.3-11.7 11.7-11.7zm0-2C6.6.3.5 6.4.5 14s6.1 13.7 13.7 13.7S27.9 21.6 27.9 14 21.8.3 14.2.3z" transform="translate(15)"/></g></g></g></svg>