<?xml version="1.0" encoding="utf-8"?>
<!-- Generator: Adobe Illustrator 16.0.0, SVG Export Plug-In . SVG Version: 6.00 Build 0)  -->
<!DOCTYPE svg PUBLIC "-//W3C//DTD SVG 1.1//EN" "http://www.w3.org/Graphics/SVG/1.1/DTD/svg11.dtd">
<svg version="1.1" xmlns="http://www.w3.org/2000/svg" xmlns:xlink="http://www.w3.org/1999/xlink" x="0px" y="0px" width="750px"
	 height="500px" viewBox="0 0 750 500" enable-background="new 0 0 750 500" xml:space="preserve">
<g id="BACKGROUND">
	<rect fill="#FFFFFF" width="750" height="500"/>
</g>
<g id="OBJECTS">
	<path opacity="0.35" fill="#A2D4F9" d="M56.688,350.016l35.523,45.615c12.195,15.661,30.934,24.818,50.783,24.818h440.808
		c16.554,0,32.471-6.378,44.444-17.809l7.589-7.243c42.193-40.28,50.436-104.597,19.761-154.213h-0.001
		c-7.447-12.047-10.714-26.215-9.292-40.307v0c5.309-52.623-29.667-100.869-81.331-112.19L466.56,67.12
		c-75.812-16.613-155.092,0.333-217.542,46.412c-11.403,8.414-19.518,14.044-20.772,14.01c-2.528-0.069-40.471,5.943-76.858,11.821
		c-39.233,6.338-68.289,39.871-68.975,79.606l0,0c-0.295,17.075-7.363,33.333-19.648,45.194l0,0
		C39.09,287.021,36.47,324.053,56.688,350.016z"/>
	<g>
		<path fill="#FFFFFF" d="M669.085,167.214c-2.167-5.265-6.664-9.324-12.218-10.873c-0.508-12.631-10.903-22.717-23.659-22.717
			c-11.221,0-20.612,7.805-23.058,18.281c-0.704-0.081-1.419-0.126-2.145-0.126c-7.452,0-13.88,4.373-16.864,10.692
			c-4.048-3.228-9.173-5.162-14.752-5.162c-7.938,0-14.96,3.91-19.258,9.905H669.085z"/>
		<path fill="#FFFFFF" d="M145.621,228.004c-1.455-3.535-4.475-6.261-8.205-7.301c-0.341-8.482-7.322-15.255-15.888-15.255
			c-7.535,0-13.841,5.242-15.483,12.276c-0.473-0.054-0.953-0.085-1.44-0.085c-5.004,0-9.32,2.937-11.324,7.18
			c-2.718-2.167-6.16-3.466-9.906-3.466c-5.332,0-10.046,2.625-12.932,6.651H145.621z"/>
		<path fill="#FFFFFF" d="M240.686,116.517c1.055-2.563,3.245-4.54,5.949-5.293c0.247-6.15,5.309-11.061,11.52-11.061
			c5.463,0,10.036,3.8,11.227,8.9c0.343-0.039,0.691-0.062,1.044-0.062c3.628,0,6.758,2.129,8.21,5.206
			c1.971-1.572,4.466-2.513,7.183-2.513c3.866,0,7.284,1.904,9.376,4.822H240.686z"/>
	</g>
	<g>
		<path fill="#EA5854" d="M237.243,155.341v-9.844c0-2.021-1.638-3.658-3.658-3.658h-9.372c-1.312-7.195-4.253-13.814-8.433-19.478
			l6.888-6.888c1.429-1.429,1.429-3.745,0-5.174l-6.961-6.961c-1.429-1.429-3.745-1.429-5.174,0l-7.256,7.256
			c-5.65-3.641-12.135-6.117-19.109-7.073v-11.1c0-2.021-1.638-3.658-3.659-3.658h-9.844c-2.021,0-3.658,1.638-3.658,3.658v11.848
			c-6.398,1.458-12.307,4.229-17.43,7.992l-8.936-8.926c-1.429-1.427-3.744-1.426-5.172,0.001l-6.962,6.963
			c-1.429,1.429-1.429,3.745,0,5.174l9.303,9.303c-3.285,5.099-5.614,10.873-6.754,17.063H117.59c-2.021,0-3.659,1.638-3.659,3.658
			v9.844c0,2.021,1.638,3.659,3.659,3.659h13.465c1.14,6.19,3.469,11.951,6.754,17.05l-9.303,9.303
			c-1.429,1.429-1.429,3.745,0,5.174l6.962,6.963c1.428,1.428,3.744,1.429,5.172,0.001l8.936-8.926
			c5.124,3.775,11.032,6.546,17.43,8.004v11.848c0,2.021,1.638,3.658,3.658,3.658h9.844c2.021,0,3.659-1.638,3.659-3.658v-11.1
			c6.975-0.957,13.459-3.445,19.109-7.085l7.256,7.256c1.429,1.429,3.745,1.429,5.174,0l6.961-6.961
			c1.429-1.429,1.429-3.745,0-5.174l-6.888-6.888c4.18-5.663,7.109-12.282,8.433-19.465h9.372
			C235.605,159,237.243,157.361,237.243,155.341z M198.979,164.055c-2.385,3.732-5.734,6.8-9.681,8.839
			c-2.077,1.094-4.322,1.889-6.679,2.357c-1.609,0.328-3.283,0.496-4.985,0.496c-2.834,0-5.565-0.467-8.11-1.337
			c-1.964-0.655-3.826-1.553-5.537-2.656c-3.732-2.376-6.8-5.715-8.849-9.672c-0.842-1.609-1.506-3.32-1.983-5.116
			c-0.562-2.086-0.861-4.284-0.861-6.548s0.299-4.462,0.861-6.547c0.477-1.796,1.141-3.508,1.992-5.126
			c2.048-3.947,5.107-7.287,8.839-9.672c1.711-1.104,3.573-2.001,5.537-2.656c2.544-0.87,5.275-1.337,8.11-1.337
			c1.702,0,3.376,0.168,4.985,0.496c2.357,0.468,4.602,1.263,6.679,2.357c3.947,2.039,7.286,5.107,9.681,8.839
			c1.384,2.161,2.45,4.555,3.124,7.1c0.561,2.085,0.86,4.284,0.86,6.547s-0.299,4.462-0.86,6.548
			C201.429,159.509,200.363,161.895,198.979,164.055z"/>
		<path fill="#F97068" d="M233.585,141.839h-9.372c-1.312-7.195-4.253-13.814-8.433-19.478l6.888-6.888
			c1.429-1.429,1.429-3.745,0-5.174l-6.961-6.961c-1.429-1.429-3.745-1.429-5.174,0l-7.256,7.256
			c-5.65-3.641-12.135-6.117-19.109-7.073v-11.1c0-2.021-1.638-3.658-3.659-3.658h-9.844c-2.021,0-3.658,1.638-3.658,3.658v11.848
			c-6.398,1.458-12.307,4.229-17.43,7.992l-8.936-8.926c-1.429-1.427-3.744-1.426-5.172,0.001l-6.962,6.963
			c-1.429,1.429-1.429,3.745,0,5.174l9.303,9.303c-3.285,5.099-5.614,10.873-6.754,17.063h-1.251
			c6.878,9.563,16.048,17.363,26.722,22.578c-0.5-0.753-0.971-1.527-1.389-2.335c-0.842-1.609-1.506-3.32-1.983-5.116
			c-0.562-2.086-0.861-4.284-0.861-6.548s0.299-4.462,0.861-6.547c0.477-1.796,1.141-3.508,1.992-5.126
			c2.048-3.947,5.107-7.287,8.839-9.672c1.711-1.104,3.573-2.001,5.537-2.656c2.544-0.87,5.275-1.337,8.11-1.337
			c1.702,0,3.376,0.168,4.985,0.496c2.357,0.468,4.602,1.263,6.679,2.357c3.947,2.039,7.286,5.107,9.681,8.839
			c1.385,2.161,2.451,4.555,3.125,7.1c0.561,2.085,0.86,4.284,0.86,6.547s-0.299,4.462-0.86,6.548
			c-0.674,2.544-1.74,4.929-3.125,7.09c-1.909,2.988-4.444,5.54-7.402,7.489c11.599-0.594,22.457-3.971,31.948-9.449
			c0.26-1.021,0.497-2.05,0.689-3.096h4.217c3.129-2.163,6.072-4.571,8.813-7.192v-6.31
			C237.243,143.477,235.605,141.839,233.585,141.839z"/>
	</g>
	<g>
		<g>
			<rect x="314.492" y="386.932" fill="#0058C6" width="80.444" height="52.513"/>
			<rect x="314.492" y="386.932" fill="#0E35AF" width="80.444" height="23.307"/>
			<path fill="#0058C6" d="M547.265,368.943H162.163V169.689c0-10.643,8.627-19.27,19.27-19.27h346.563
				c10.643,0,19.27,8.627,19.27,19.27V368.943z"/>
			<rect x="175.587" y="173.146" fill="#7DB6F4" width="358.252" height="185.569"/>
			<path fill="#57AFF7" d="M547.265,358.715H162.163v19.451c0,10.643,8.627,19.27,19.27,19.27h346.563
				c10.643,0,19.27-8.627,19.27-19.27V358.715z"/>
			<circle fill="#0058C6" cx="354.714" cy="379.646" r="7.287"/>
			<path fill="#57AFF7" d="M499.801,448.942H209.626c-2.673,0-4.84-2.167-4.84-4.84l0,0c0-7.818,6.337-14.155,14.155-14.155h271.544
				c7.818,0,14.155,6.337,14.155,14.155l0,0C504.641,446.775,502.474,448.942,499.801,448.942z"/>
			<g>
				<g>
					<path fill="#AFD9FF" d="M515.946,220.897h-75.035c-1.21,0-2.191-0.981-2.191-2.192v-15.481c0-1.21,0.981-2.192,2.191-2.192
						h75.035c1.21,0,2.191,0.981,2.191,2.192v15.481C518.138,219.916,517.156,220.897,515.946,220.897z"/>
					<g>
						<polygon fill="#FF777A" points="449.908,214.251 446.868,215.643 447.252,212.321 444.989,209.86 448.267,209.199 
							449.908,206.287 451.55,209.199 454.827,209.86 452.564,212.321 452.948,215.643 						"/>
						<polygon fill="#FF777A" points="464.168,214.251 461.129,215.643 461.513,212.321 459.25,209.86 462.527,209.199 
							464.168,206.287 465.81,209.199 469.087,209.86 466.824,212.321 467.208,215.643 						"/>
						<polygon fill="#FF777A" points="478.429,214.251 475.389,215.643 475.772,212.321 473.51,209.86 476.787,209.199 
							478.429,206.287 480.07,209.199 483.348,209.86 481.085,212.321 481.469,215.643 						"/>
						<polygon fill="#FF777A" points="492.688,214.251 489.648,215.643 490.032,212.321 487.77,209.86 491.047,209.199 
							492.688,206.287 494.33,209.199 497.607,209.86 495.345,212.321 495.729,215.643 						"/>
						<polygon fill="#F7F7F7" points="506.949,214.251 503.909,215.643 504.293,212.321 502.03,209.86 505.308,209.199 
							506.949,206.287 508.59,209.199 511.867,209.86 509.604,212.321 509.988,215.643 						"/>
					</g>
				</g>
				<g>
					<path fill="#AFD9FF" d="M275.672,217.093h-80c-2.421,0-4.383-1.962-4.383-4.384V193.87c0-2.421,1.962-4.384,4.383-4.384h80
						c2.421,0,4.384,1.963,4.384,4.384v18.839C280.056,215.13,278.093,217.093,275.672,217.093z"/>
					<g>
						<g>
							<circle fill="#FF777A" cx="206.061" cy="203.29" r="7.74"/>
							<path fill="#F7F7F7" d="M200.865,209.014c1.374,1.248,3.193,2.015,5.196,2.015s3.822-0.767,5.196-2.015
								c-0.162-2.015-1.454-3.707-3.253-4.429c0.771-0.588,1.276-1.507,1.276-2.551c0-1.778-1.441-3.219-3.219-3.219
								s-3.219,1.441-3.219,3.219c0,1.044,0.505,1.963,1.276,2.551C202.319,205.307,201.026,206.999,200.865,209.014z"/>
						</g>
						<g>
							<rect x="219.417" y="199.25" fill="#DCF1FF" width="41.253" height="1.478"/>
							<rect x="219.417" y="202.551" fill="#DCF1FF" width="53.607" height="1.477"/>
							<rect x="219.417" y="205.852" fill="#DCF1FF" width="53.607" height="1.478"/>
						</g>
					</g>
				</g>
				<g>
					<path fill="#AFD9FF" d="M239.722,240.667h-46.24c-1.21,0-2.192-0.981-2.192-2.192v-8.279c0-1.21,0.981-2.192,2.192-2.192h46.24
						c1.211,0,2.192,0.981,2.192,2.192v8.279C241.914,239.685,240.933,240.667,239.722,240.667z"/>
					<path fill="#AFD9FF" d="M239.722,258.558h-46.24c-1.21,0-2.192-0.981-2.192-2.192v-8.279c0-1.21,0.981-2.191,2.192-2.191h46.24
						c1.211,0,2.192,0.981,2.192,2.191v8.279C241.914,257.576,240.933,258.558,239.722,258.558z"/>
					<path fill="#DCF1FF" d="M239.722,276.448h-46.24c-1.21,0-2.192-0.981-2.192-2.192v-8.278c0-1.211,0.981-2.191,2.192-2.191
						h46.24c1.211,0,2.192,0.98,2.192,2.191v8.278C241.914,275.467,240.933,276.448,239.722,276.448z"/>
					<path fill="#FF777A" d="M298.044,258.558h-46.241c-1.211,0-2.192-0.981-2.192-2.192v-8.279c0-1.21,0.981-2.191,2.192-2.191
						h46.241c1.21,0,2.191,0.981,2.191,2.191v8.279C300.235,257.576,299.254,258.558,298.044,258.558z"/>
					<path fill="#AFD9FF" d="M298.044,276.448h-46.241c-1.211,0-2.192-0.981-2.192-2.192v-8.278c0-1.211,0.981-2.191,2.192-2.191
						h46.241c1.21,0,2.191,0.98,2.191,2.191v8.278C300.235,275.467,299.254,276.448,298.044,276.448z"/>
				</g>
				<g>
					<path fill="#FF777A" d="M515.946,264.889h-46.241c-1.21,0-2.191-0.981-2.191-2.192v-8.278c0-1.211,0.981-2.192,2.191-2.192
						h46.241c1.21,0,2.191,0.981,2.191,2.192v8.278C518.138,263.907,517.156,264.889,515.946,264.889z"/>
					<path fill="#AFD9FF" d="M515.946,282.779h-46.241c-1.21,0-2.191-0.981-2.191-2.191v-8.279c0-1.21,0.981-2.191,2.191-2.191
						h46.241c1.21,0,2.191,0.981,2.191,2.191v8.279C518.138,281.798,517.156,282.779,515.946,282.779z"/>
					<path fill="#DCF1FF" d="M515.946,300.67h-46.241c-1.21,0-2.191-0.981-2.191-2.191v-8.279c0-1.21,0.981-2.191,2.191-2.191
						h46.241c1.21,0,2.191,0.981,2.191,2.191v8.279C518.138,299.688,517.156,300.67,515.946,300.67z"/>
				</g>
			</g>
		</g>
		<g>
			<g>
				<path fill="#252384" d="M293.99,185.579c-2.285,57.728-29.13,63.573,0,105.216c29.131,41.644,129.463,26.889,131.169-4.638
					c1.705-31.526-19.481-50.522-5.601-89.974C433.439,156.731,293.99,185.579,293.99,185.579z"/>
				<path fill="#0C0835" d="M301.464,200.944c-3.385,26.238-12.386,52.115-7.763,66.335c0,0,0.506-16,3.502-19.856
					c0,0-2.991,22.458,6.171,40.676s108.058,14.748,108.058,14.748s2.024-19.953,0-34.411c-2.024-14.459-5.879-20.076-6.987-27.822
					c0,0,6.097,12.592,8.47,17.412s2.693,11.884,2.693,11.884s0.644-12.848-4.368-22.68c-5.013-9.832-2.006-36.942-0.521-47.484
					c1.485-10.542-69.757-23.044-77.511-18.817C325.455,185.156,301.464,200.944,301.464,200.944z"/>
			</g>
			<g>
				<path fill="#FFFFFF" d="M324.437,272.21c-34.375,11.645-59.032,16.027-66.155,38.493c-7.124,22.466-17.109,48.012-17.109,48.012
					h232.45c0,0-11.507-52.943-24.109-61.71c-12.603-8.768-61.917-23.457-76.986-25.976
					C357.458,268.512,324.437,272.21,324.437,272.21z"/>
				<path fill="#DCEDFF" d="M419.188,323.099c0,0,0.877,21.076-2.203,35.616h7.88L419.188,323.099z"/>
				<path fill="#DCEDFF" d="M296.878,331.404c0,0-0.673,16.161,1.689,27.311h-6.043L296.878,331.404z"/>
				<path fill="#DCEDFF" d="M269.24,304.286c3.012-7.941,12.734-17.264,12.744-17.273c-11.797,5.425-20.055,12.185-23.703,23.69
					c-7.124,22.466-17.109,48.012-17.109,48.012h18.753C259.103,334.788,266.226,312.231,269.24,304.286z"/>
				<path fill="#0058C6" d="M366.5,315.908c0,0-16.712-1.096-26.849-8.767c-10.137-7.671-8.767-15.343-8.767-15.343
					s-7.397,0.549-10.137,0c-2.74-0.548,1.194-29.094,17.172-29.615c15.979-0.521,49.448,6.106,53.557,6.328
					c4.11,0.222,17.666,12.372,14.245,27.766c-0.548,2.466-7.166-4.479-10.181-0.916C392.526,298.923,390.062,313.991,366.5,315.908
					z"/>
				<path fill="#0E35AF" d="M360.956,311.314c0,0-20.072-13.467-29.113-39.905c-1.431-4.183,0.986-6.521,5.424-7.232
					L360.956,311.314z"/>
				<path fill="#0E35AF" d="M367.348,315.369c11.754-7.521,22.576-26.015,25.864-32.179c3.287-6.165,3.419-11.968-6.646-13.039
					C376.499,269.081,367.348,315.369,367.348,315.369z"/>
				<path fill="#FFC5C7" d="M388.064,232.647c-3.027,24.441-4.763,37.508,3.411,47.646c0,0-14.565,29.588-24.976,35.615
					c0,0-24.931-17.808-31.78-46.301c0,0,4.109-6.301,4.657-15.616c0.548-9.315-0.822-25.479-0.822-25.479L388.064,232.647z"/>
				<path fill="#FE8A8B" d="M381.688,297.794c-15.203,18.409-30.87,2.872-36.69-5.021c9.614,14.64,21.502,23.136,21.502,23.136
					C371.292,313.135,376.961,305.369,381.688,297.794z"/>
				<path fill="#FE8A8B" d="M339.376,253.991c-0.469,7.974-3.541,13.726-4.417,15.22c11.278-2.001,35.474-6.641,50.642-12.047
					c0.239-6.7,1.246-14.688,2.464-24.517l-30.203-2.522l-19.278-1.252C338.779,231.284,339.876,245.488,339.376,253.991z"/>
			</g>
			<g>
				<g>
					<path fill="#FFA6A4" d="M427.444,170.372c0.969-15.414,1.223-29.438-10.807-47.415c-12.028-17.976-9.487,29.461-9.29,30.004
						c0.197,0.542,10.664,20.545,10.664,20.545L427.444,170.372z"/>
					<path fill="#F97068" d="M420.653,194.769c-1.527,8.865-0.492,16.184,3.758,16.917c4.25,0.732,8.933-5.86,10.46-14.725
						c1.528-8.865-0.679-16.645-4.929-17.377C425.692,178.852,422.182,185.904,420.653,194.769z"/>
					<path fill="#CB3034" d="M428.962,200.457l-2.676,1.088l-2.623,7.266c0,0-0.444,0.901-0.991,2.06
						c0.507,0.412,1.08,0.701,1.739,0.815c3.766,0.649,7.867-4.459,9.816-11.798C430.848,201.644,428.962,200.457,428.962,200.457z"
						/>
					<path fill="#F97068" d="M416.721,167.491c3.297-0.611,12.649,1.868,13.711,6.698c2.414,10.984-1.597,36.465-8.955,42.755
						c-2.682,2.292-10.148,1.826-12.798,1.012c-6.726-2.065-6.748-12.818-4.29-27.083S412.146,168.339,416.721,167.491z"/>
					<path fill="#CB3034" d="M428.962,200.457c-3.422,2.468-5.199,0-5.199,0c-2.319,4.934-6.584,4.929-11.967,5.659l-3.019-1.598
						c0,0-2.949,2.17-5.715,4.131c0.497,4.91,2.176,8.25,5.616,9.307c2.649,0.813,10.116,1.28,12.798-1.012
						C424.701,214.188,427.282,207.748,428.962,200.457z"/>
					<path fill="#FFA6A4" d="M430.432,174.189c-1.062-4.831-10.414-7.309-13.711-6.698c-0.272,0.05-0.549,0.131-0.826,0.234
						c6.044-0.447,9.208,3.783,9.901,8.627c0.694,4.846,0.002,26.772-7.113,36.444c-0.908,1.234-2.478,4.837-7.765,5.603
						c3.357,0.442,8.443,0.353,10.559-1.456C428.835,210.654,432.846,185.174,430.432,174.189z"/>
					<path fill="#F97068" d="M428.962,200.457c-3.422,2.468-5.199,0-5.199,0c0,0.001-0.001,0.002-0.002,0.004
						c-1.129,4.735-2.762,9.186-5.078,12.335c-0.908,1.234-2.478,4.837-7.765,5.603c3.357,0.441,8.443,0.353,10.559-1.456
						C424.701,214.188,427.282,207.748,428.962,200.457z"/>
					
						<ellipse transform="matrix(0.9855 0.1698 -0.1698 0.9855 38.6458 -67.417)" fill="#CB3034" cx="413.469" cy="192.229" rx="3.807" ry="14.219"/>
				</g>
				<path fill="#FFC5C7" d="M313.659,217.483c0.093,0.225,0.188,0.45,0.286,0.675c3.373,7.769,9.449,15.859,15.396,21.918
					c8.79,8.955,20.718,16.741,33.363,18.437c13.592,1.822,26.062-5.738,35.153-15.437c4.178-4.457,7.443-9.964,8.791-15.958
					c1.434-6.374,0.656-13.206,1.697-19.718c0.561-3.501,1.967-6.8,3.15-10.142c3.63-10.247,5.447-21.722,4.199-32.746
					c-0.519-4.582-1.267-11.151-3.747-15.125c-2.851-4.568-9.446-8.162-13.897-10.948c-14.266-8.928-33.179-12.196-49.392-7.149
					c-16.573,5.159-30.086,18.445-37.068,34.155c-3.323,7.478-5.255,14.837-3.641,22.897
					C309.961,198.386,309.657,207.806,313.659,217.483z"/>
				<path fill="#FE8A8B" d="M310.335,179.725c0,0,25.753,7.077,48.493,0c22.74-7.077,30.457-21.324,32.351-28.721
					c0,0,18.574,14.563,22.289,36.048c0,0,1.276-38.148-10.576-42.898c-11.854-4.749-36.667-10.958-39.407-8.493
					c-2.74,2.466-48.767,28.767-48.767,28.767L310.335,179.725z"/>
				<g>
					<path fill="#0C0835" d="M336.546,180.261c1.873-0.917,3.811-1.7,5.808-2.39c2.002-0.665,4.084-1.167,6.223-1.424
						c2.123-0.263,4.354-0.567,6.485-0.017c3.09,0.842,4.323,1.461,5.825,2.886l-0.103,0.282c-1.121,0.07-2.154,0.006-3.176-0.039
						l-2.996-0.163c-1.957-0.075-3.88-0.551-5.885-0.554c-1.99-0.002-4.003,0.179-6.02,0.487c-2.025,0.281-4.035,0.752-6.061,1.215
						L336.546,180.261z"/>
					<path fill="#0C0835" d="M403.577,180.902c-1.922-0.822-3.911-1.381-5.937-1.662c-2.019-0.304-4.054-0.391-6.07-0.304
						c-2.028,0.093-3.979,0.641-5.977,0.76c-2.013,0.142-4.025,0.34-6.268,0.267l-0.103-0.282c1.699-1.493,3.749-2.375,5.863-2.941
						c2.129-0.588,4.372-0.375,6.53-0.203c2.17,0.167,4.318,0.572,6.373,1.245c2.043,0.699,4.021,1.603,5.738,2.861L403.577,180.902
						z"/>
					<ellipse fill="#0C0835" cx="349.072" cy="191.789" rx="1.957" ry="4"/>
					<ellipse fill="#0C0835" cx="390.243" cy="191.98" rx="1.88" ry="4"/>
					<path fill="#FE8A8B" d="M375.631,211.028c-0.574,1.491-1.548,2.863-2.904,3.708s-3.115,1.106-4.587,0.484
						c-2.378-1.005-3.033-3.78,0.203-3.153c1.262,0.245,2.465,0.395,3.752,0.215C372.757,212.19,375.346,211.769,375.631,211.028z"
						/>
					<g>
						<path fill="#C31F2A" d="M352.062,221.901c8.146,1.056,27.777,1.532,34.188,1.214c-2.624,8.701-9.077,17.227-17.92,16.913
							C359.255,239.707,353.981,230.972,352.062,221.901z"/>
						<path fill="#FB8384" d="M379.04,235.513c-6.828-5.75-11.756-0.831-11.756-0.831c-1.556-1.057-5.861-2.842-9.641-0.287
							c2.091,2.554,4.713,4.44,7.886,5.226c0.989,0.134,2.017,0.271,3.048,0.4C372.621,240.089,376.151,238.305,379.04,235.513z"/>
						<path fill="#FFFFFF" d="M354.181,222.137c0.141,1.46,0.424,2.905,0.861,4.295c8.825,3.241,18.691,3.752,27.761,1.433
							c0.33-1.519,0.577-3.09,0.756-4.672C376.203,223.305,362.087,222.916,354.181,222.137z"/>
					</g>
				</g>
				<g>
					<path fill="#FFA6A4" d="M404.79,238.831c-0.66,0.053-1.309,0.038-1.942-0.048c-6.223-0.843-9.557-1.308-9.557-1.308
						l0.381-2.729c0.001,0,3.331,0.464,9.547,1.306c5.729,0.782,13.079-8.324,15.018-19.029c0.133-0.736,0.804-1.249,1.545-1.147
						l0,0c0.766,0.104,1.312,0.821,1.176,1.582C418.943,228.756,411.53,238.292,404.79,238.831z"/>
					<path fill="#F97068" d="M420.632,216.339c0.005,0.097,0.001,0.196-0.018,0.297c-2.014,11.298-9.426,20.835-16.167,21.373
						c-0.66,0.053-1.309,0.038-1.941-0.048c-4.912-0.666-8.016-1.094-9.108-1.246l-0.106,0.76c0,0,3.334,0.465,9.557,1.308
						c0.634,0.085,1.282,0.1,1.942,0.047c6.74-0.538,14.153-10.075,16.167-21.373C421.032,217.038,420.895,216.636,420.632,216.339z
						"/>
					<path fill="#252384" d="M393.442,239.031l-5.459-0.747c-1.885-0.258-3.203-1.995-2.945-3.879l0,0
						c0.258-1.884,1.995-3.203,3.879-2.945l5.459,0.747c1.885,0.258,3.203,1.995,2.945,3.879l0,0
						C397.063,237.971,395.326,239.289,393.442,239.031z"/>
					<path fill="#261B60" d="M396.523,233.397c0.014,0.223,0.007,0.45-0.024,0.68l0,0c-0.258,1.885-1.994,3.203-3.879,2.945
						l-4.777-0.654c-1.299-0.178-2.314-1.065-2.744-2.212c-0.019,0.084-0.049,0.163-0.061,0.25l0,0
						c-0.258,1.884,1.061,3.621,2.945,3.879l5.459,0.747c1.884,0.258,3.621-1.061,3.879-2.945l0,0
						C397.459,235.077,397.135,234.118,396.523,233.397z"/>
				</g>
				<g>
					<path fill="#252384" d="M385.951,144.27c0,0,27.397,11.506,27.671,49.041c0,0,21.918-24.109,9.042-60.273
						c-12.877-36.164-50.137-34.794-50.137-34.794L385.951,144.27z"/>
					<path fill="#261B60" d="M385.951,144.27c0,0,26.722,11.249,27.631,47.71c0-0.21,0.003-0.411,0-0.626
						c-0.447-36.789-13.201-46.561-25.804-53.261l-3.002,2.148L385.951,144.27z"/>
					<path fill="#252384" d="M308.783,177.694c0,0,75.524,4.383,81.552-33.973c6.027-38.355-13.332-47.665-22.831-48.584
						c-9.498-0.919-28.004-3.118-43.835,12.237s-33.504,24.657-31.537,74.337L308.783,177.694z"/>
					<path fill="#0C0835" d="M307.216,167.305c3.293-1.833,6.581-3.714,9.759-5.786c3.197-2.042,6.338-4.19,9.412-6.44
						c6.155-4.488,12.114-9.293,17.739-14.487c-5.108,5.71-10.606,11.088-16.366,16.195c-2.875,2.56-5.837,5.031-8.882,7.413
						c-3.023,2.41-6.188,4.649-9.392,6.854L307.216,167.305z"/>
					<path fill="#0C0835" d="M350.149,110.638c-17.896,9.68-37.575,32.962-37.956,52.247c0,0-7.567-7.024-3.587-17.095
						c3.979-10.07,15.695-21.227,22.187-26.02S350.149,110.638,350.149,110.638z"/>
					<path fill="#0C0835" d="M313.281,169.447c-2.397-6.213-0.753-27.417,0-33.444s2.979-10.616,3.219-11.746
						c0.24-1.13-0.28-1.471-0.28-1.471c12.46-19.176,30.143-21.919,48.072-27.529l-1.031-0.509
						c-10.133-0.803-25.866-0.687-39.592,12.627c-15.831,15.355-33.504,24.657-31.537,74.337l16.651-4.018
						c0,0,25.828,1.495,48.481-4.932C332.075,177.711,315.678,175.659,313.281,169.447z"/>
					<path fill="#0C0835" d="M380.983,143.6c-7.402,11.555-16.563,22.337-51.532,27.36c-23.295,3.346-26.978-1.434-26.978-1.434
						s40.659-2.708,57.086-11.044S380.983,143.6,380.983,143.6z"/>
				</g>
				<g>
					<path fill="#FFA6A4" d="M313.988,123.697c4.526-13.242,27.215-28.194,53.516-28.56c0,0-13.516-3.288-29.223,2.557
						s-27.014,15.377-33.233,26.136C298.829,134.589,313.988,123.697,313.988,123.697z"/>
					<path fill="#F97068" d="M336.905,101.277c-14.383,5.753-22.374,17.945-22.374,17.945c-0.725,0.091-7.287,1.313-7.388,1.332
						c-0.747,1.079-1.455,2.169-2.095,3.277c-0.224,0.387-0.412,0.738-0.582,1.07c2.057-0.142,5.074-0.277,5.87,0.075
						c0.328,0.145,0.981,0.102,2.003-0.15c0.986-0.652,1.65-1.128,1.65-1.128c4.526-13.242,27.215-28.194,53.516-28.56
						C358.651,95.025,351.289,95.524,336.905,101.277z"/>
					<path fill="#FFA6A4" d="M310.473,170.374c-1.238-24.6,2.237-41.379,5.342-45.946c3.105-4.566-9.636-2.58-12.194,1.005
						c-1.657,2.322-7.262,21.89-5.205,45.112S310.473,170.374,310.473,170.374z"/>
					<path fill="#F97068" d="M313.529,121.776c1.094,0.415,1.413,0.963,0.637,2.15c-0.776,1.187-3.973,11.598-4.794,20.776
						c-0.822,9.178-0.411,18.813-0.594,19.909c-0.183,1.095-8.215,3.118-10.637,2.017c0.069,1.293,0.158,2.599,0.275,3.917
						c0.152,1.715,0.348,3.169,0.579,4.403c2.44,0.275,5.827,0.396,8.919,0.443c1.499-2.542,2.558-5.018,2.558-5.018
						c-1.238-24.6,2.237-41.379,5.342-45.946C317.07,122.582,315.734,121.807,313.529,121.776z"/>
					<path fill="#F97068" d="M308.351,169.18c-3.217-0.947-12.774,0.556-14.328,5.251c-3.532,10.678-2.167,36.436,4.505,43.45
						c2.431,2.556,9.907,2.86,12.626,2.324c6.902-1.361,8.031-12.055,7.055-26.497C317.234,179.266,312.815,170.494,308.351,169.18z
						"/>
					<path fill="#CB3034" d="M298.529,217.881c2.431,2.556,9.907,2.86,12.626,2.324c3.966-0.783,6.02-4.658,6.869-10.545
						c-3.32,2.848-11.806,1.936-16.096-0.004c0,0,0.703-12.823-1.569-20.055c0,0-4.062,8.961-6.534,17.286
						C294.887,211.689,296.45,215.695,298.529,217.881z"/>
					
						<ellipse transform="matrix(0.9977 -0.0674 0.0674 0.9977 -12.4727 20.5967)" fill="#FFA6A4" cx="298.802" cy="195.02" rx="8.402" ry="23.41"/>
					<path fill="#F97068" d="M301.281,199.881c0,0-5.916,0.738-8.198,9.688c1.911,5.512,4.572,8.992,7.298,8.807
						c2.355-0.159,4.296-3.018,5.525-7.478c-1.497-0.316-2.876-0.745-3.978-1.243C301.929,209.656,302.448,207.571,301.281,199.881z
						"/>
					<path fill="#F97068" d="M301.154,195.959c0.653,9.662-1.094,17.374-5.396,17.665c-4.302,0.291-8.32-7.306-8.973-16.968
						c-0.653-9.662,2.305-17.73,6.608-18.021C297.695,178.345,300.5,186.298,301.154,195.959z"/>
					<path fill="#CB3034" d="M294.68,210.28c-1.964,0.133-3.876-1.032-5.571-3.12c1.706,4.081,4.125,6.634,6.648,6.464
						c3.701-0.25,5.505-5.995,5.524-13.743C300.362,205.979,298.181,210.044,294.68,210.28z"/>
				</g>
			</g>
		</g>
	</g>
	<g>
		<g>
			<g>
				<path fill="#FFC5C7" d="M503.407,246.55c-0.894,3.288,1.938,6.211,2.851,6.759s7.123,3.104,10.959,3.196
					c3.835,0.091,9.497-8.037,7.488-8.95c-2.009-0.914-16.073-1.918-17.625-1.918C505.527,245.637,503.407,246.55,503.407,246.55z"
					/>
				<path fill="#FFFFFF" d="M513.609,244.815c0.959,9.862,4.384,17.534,5.616,17.671c1.233,0.137,13.472-3.973,16.873-5.479
					s0.783-24.655-1.295-24.247c-2.078,0.407-6.893,4.854-10.757,6.987C520.184,241.879,513.609,244.815,513.609,244.815z"/>
				<path fill="#DCEDFF" d="M532.977,248.916c-1.295,1.974-11.146,6.977-16.505,8.801c1.08,2.912,2.166,4.704,2.754,4.77
					c1.056,0.117,10.179-2.879,14.915-4.688C534.021,254.133,532.977,248.916,532.977,248.916z"/>
				<path fill="#FFC5C7" d="M503.427,246.094c-0.379,3.913,3.104,4.475,7.397,3.47c4.292-1.004,11.872-10.502,15.251-14.794
					c3.379-4.292,9.657-11.94,10.89-12.625c1.233-0.685,3.974-1.048,6.576-4.908s0.137-11.941-0.891-12.9
					s-10.662,2.243-11.872,3.861s0.022,10.317-0.389,11.413s-9.063,10.046-12.717,12.237
					C514.021,234.039,503.701,243.263,503.427,246.094z"/>
				<path fill="#FE8A8B" d="M537.365,210.793c1.146-0.548,1.594-3.037,0.866-2.598s-1.944,0.429-3.589,0.406
					s-2.309-0.165-2.309-0.165s-0.247,1.078-0.303,1.961C532.031,210.398,536.219,211.341,537.365,210.793z"/>
				<path fill="#FE8A8B" d="M544.645,211.359c-0.579-1.247-1.028-2.192-1.028-2.192l-6.921,6.226
					c-1.656-1.534-3.719-2.933-3.719-2.933l-0.643,1.015c0.917,1.771,1.557,5.515,1.511,6.428c0,0,0.913,1.096,1.461,1.187
					c0,0-7.717,10.959-12.557,16.347c-4.812,5.356-8.178,9.989-10.371,11.479c4.383-2.425,10.695-10.333,13.697-14.146
					c3.379-4.292,9.657-11.94,10.89-12.625c1.233-0.685,3.974-1.048,6.576-4.908C544.573,215.706,544.802,213.511,544.645,211.359z"
					/>
				<path fill="#0C0835" d="M531.138,211.984c0.031,0.639,6.054,6.21,6.68,6.849c0.047,0.048,0.544,0.122,0.69,0
					c1.819-1.501,10.269-15.055,10.438-15.544c0.158-0.457-4.458-5.119-5.88-6.366c-0.193-0.17-1.05-0.067-1.204,0.139
					C540.17,199.324,531.096,211.159,531.138,211.984z"/>
				<path fill="#252384" d="M531.828,211.984c0.032,0.639,6.054,6.21,6.68,6.849c0.626,0.64,10.946-15.016,11.129-15.544
					c0.157-0.457-5.025-5.043-6.447-6.29c-0.193-0.17-0.483-0.143-0.638,0.063C540.86,199.324,531.787,211.159,531.828,211.984z"/>
				<path fill="#57AFF7" d="M532.977,211.068c0.03,0.598,5.663,5.81,6.249,6.408s10.24-14.047,10.411-14.542
					c0.147-0.427-4.701-4.717-6.031-5.884c-0.182-0.159-0.452-0.134-0.597,0.059C541.427,199.224,532.938,210.296,532.977,211.068z"
					/>
				<path fill="#FFC5C7" d="M537.388,203.429c1.039-0.6,2.408-2.632,2.568-3.317c0.16-0.685,0.137-1.301-0.388-1.438
					c-0.525-0.137-2.329,2.009-3.196,2.648c-0.868,0.64-1.964,1.964-1.621,2.854c0.342,0.891,2.191,0.548,2.396,0.411
					C537.354,204.45,537.388,203.429,537.388,203.429z"/>
				<path fill="#FE8A8B" d="M539.863,198.854c0.259,0.779-2.025,3.904-3.894,4.803l0.614,0.767c0,0,0.31-0.067,0.707-0.16
					c0.078-0.347,0.097-0.834,0.097-0.834c1.039-0.6,2.408-2.632,2.568-3.317C540.077,199.593,540.091,199.116,539.863,198.854z"/>
				<path fill="#FFC5C7" d="M534.844,206.586c1.779-0.915,3.114-0.812,4.073-1.189c0.959-0.376,1.233-1.815,0.617-2.055
					c-0.617-0.24-4.521,0.377-5.549,0.822c-1.026,0.445-1.651,2.496-1.651,2.496L534.844,206.586z"/>
				<path fill="#FE8A8B" d="M535.671,205.52c-0.981,0.183-1.301,0-1.301,0c0,0.378-0.371,0.567-0.813,1.105l1.286-0.038
					c1.779-0.915,3.114-0.812,4.073-1.189c0.438-0.171,0.724-0.564,0.857-0.963C539.302,205.223,536.648,205.338,535.671,205.52z"/>
				<path fill="#FFC5C7" d="M530.778,208.197c0.821,1.264,5.342,0.716,6.256,0.58c0.913-0.137,1.521-0.708,1.471-1.283
					c-0.102-1.16-6.037-0.955-6.54-0.772C531.463,206.905,530.778,208.197,530.778,208.197z"/>
				<path fill="#FE8A8B" d="M538.452,207.773c-0.656,0.608-2.153,0.955-3.769,1.085c-1.398,0.112-2.194,0.058-2.378,0.042
					c1.669,0.269,4.087-0.027,4.729-0.124C537.797,208.662,538.321,208.243,538.452,207.773z"/>
			</g>
			<g>
				<g>
					<path fill="#FFDCDC" d="M552.855,468.581c0.274,2.397,1.232,3.287,4.727,3.767c3.492,0.479,8.63,0.411,11.301-2.191
						s4.315-5.616,4.521-6.918c0.206-1.301,0.137-2.739,0.548-3.425c0.411-0.685,2.584-1.111,2.316-4.932
						C576,451.063,552.855,468.581,552.855,468.581z"/>
					<path fill="#F97068" d="M575.476,445.812c-0.394-5.305-12.963-3.258-13.031-1.135s-3.014,11.027-5.906,13.731
						c0,0,0.003,0.005,0.003,0.006c-3.787,1.722-5.214,6.034-3.686,10.167c1.297,3.507,11.027,2.658,13.356,1.37
						c2.454-1.358,4.882-4.913,5.61-6.838l0.001-0.001c0.528-1.136,0.758-2.819,1.923-4.258c1.164-1.438,1.78-1.164,2.328-2.876
						C576.622,454.266,575.869,451.115,575.476,445.812z"/>
					<path fill="#FFDCDC" d="M564.733,445.586c-1.208,5.471-3.816,9.032-3.053,9.668c0.763,0.637,5.47,1.399,6.36,0
						c0.891-1.398,2.417-7.314,2.417-9.668S564.733,445.586,564.733,445.586z"/>
				</g>
				<g>
					<path fill="#F97068" d="M536.925,450.071c0.314-2.381,0.345-5.874-1.672-9.847s-1.918-4.314-4.246-4.726
						c-2.329-0.411-10.822-1.575-10.822-1.575s-1.438,3.973-6.438,6.712s-6.027,3.698-9.246,3.698c-3.22,0-10.334,0.379-7.534,8.904
						c0,0,2.26,0.981,7.922,0.937c5.662-0.046,11.416-0.503,13.471-1.278c2.055-0.776,4.2-1.188,5.434-0.686
						c1.232,0.502,5.251,0.319,7.534,0S536.925,450.071,536.925,450.071z"/>
					<path fill="#FFDCDC" d="M510.065,442.268c-0.353,0.117-0.484,0.53-0.282,0.843c0.674,1.046,2.075,2.193,2.821,1.932
						c0.913-0.319,5.147-3.522,7.397-5.479c1.05-0.913,2.055-2.648,1.461-3.47c-0.594-0.822-2.146-1.781-2.785-1.279
						c-0.64,0.503-1.872,2.913-4.475,5.063C512.438,441.336,510.883,441.994,510.065,442.268z"/>
					<path fill="#FFDCDC" d="M496.966,453.238c5.616,0.548,18.554-0.548,21.194-1.232c2.641-0.686,4.079-1.85,6.613-0.891
						s10.343-0.548,11.575-1.027c1.233-0.479,0.891,1.449,0,1.649s-6.507,1.387-9.384,1.649c-2.876,0.263-3.014-1.86-6.438-0.285
						c-3.425,1.575-9.041,1.575-11.507,1.575s-9.521,0.548-10.822,0C496.897,454.129,496.966,453.238,496.966,453.238z"/>
				</g>
				<path fill="#0E35AF" d="M561.417,445.91c3.842,1.047,14.795,0.685,15.343-0.822s-1.507-25.205-1.507-32.739
					s-2.603-26.165-2.192-28.22c0.411-2.055,0.411-3.562-0.273-7.123c-0.686-3.562-0.955-44.84-4.247-72.647l-42.739,4.019
					c0,0-6.85,26.301-7.396,44.931c-0.549,18.63,0.091,27.58,0,30.319c-0.092,2.74,1.164,5.479,1.449,7.671
					c0.285,2.192-0.08,18.447-0.445,24.292s-0.632,16.621-1.229,17.899c-0.598,1.279,12.918,3.836,14.744,2.923
					c1.827-0.913,1.827-1.096,1.827-10.594c0-9.497,1.278-32.328,1.278-36.347s1.278-4.749,0.73-6.758s1.461-11.142,3.471-17.899
					c2.009-6.758,4.383-14.063,4.383-14.063s5.662,36.529,7.489,38.721c1.826,2.191,1.461,7.854,2.557,11.142
					c1.096,3.287,4.384,25.57,4.384,32.328S557.398,444.813,561.417,445.91z"/>
				<path fill="#001E7F" d="M570.519,446.445c1.85-0.091,3.54-0.285,4.701-0.574c0.456-1.949,0.942-4.402,1.447-7.252
					c-0.421-7.973-1.414-21.03-1.414-26.271c0-7.534-2.603-26.165-2.192-28.22c0.411-2.055,0.411-3.562-0.273-7.123
					c-0.686-3.562-0.955-44.84-4.247-72.647l-8.6,0.809l-25.167,9.465c12.131,0.339,26.24-1.561,26.24-1.561
					s1.967,22.265,2.033,25.552c0.067,3.288,2.441,33.985,2.441,36.81c0,2.825,1.096,3.641,1.278,6.703s-2.191,4.158-2.191,4.158
					s3.288,1.097,3.288,1.645s0.685,9.36,0.685,12.785s1.492,8.082,1.91,18.356c0.419,10.273,1.788,22.465,1.788,23.835
					C572.246,444.252,572.241,445.644,570.519,446.445z"/>
				<path fill="#001E7F" d="M542.795,330.039l-9.179-2.329l7.123,3.425l-5.753,0.138l4.408,1.574c0,0,1.374,11.445-1.486,19.11
					c-3.135,8.401-4.565,29.862-5.524,31.506c-0.959,1.645-3.425,1.233-3.425,1.233s2.603,0.274,2.739,2.191
					c0.138,1.918-0.548,7.261-0.548,12.923s-0.548,14.643-1.096,18.463s-0.804,13.167-1.096,15.65
					c-0.292,2.482-4.024,1.903-4.024,1.903h-0.001c1.893,0.357,3.845,0.633,5.369,0.734c5.643,0.531,4.471-1.558,4.462-12.66
					c0.14-10.345,1.265-30.661,1.265-34.43c0-4.019,1.278-4.749,0.73-6.758s1.461-11.142,3.471-17.899
					c2.009-6.758,4.383-14.063,4.383-14.063s-0.997-9.342-1.134-11.534C543.343,337.025,542.795,330.039,542.795,330.039z"/>
			</g>
			<g>
				<path fill="#FFFFFF" d="M550.458,225.911c-9.862,4.84-11.409,4.653-15.654,6.849c-4.245,2.195-4.711,25.298-4.711,28.859
					s-0.045,17.717-0.867,21.552c-0.822,3.836-3.973,18.082-5.068,20.274c-1.096,2.191-3.15,5.89-0.548,8.082
					c2.603,2.191,8.337,3.698,21.086,2.876c12.749-0.821,26.996-8.63,27.681-9.726s-4.521-21.232-4.521-25.068
					s-0.548-6.712-0.822-8.493c-0.273-1.78,4.371-10.137,5.405-15.479c1.033-5.342,7.91-20.08,7.006-22.779
					c-0.904-2.7-10.795-5.708-17.429-9.141C555.381,220.284,550.458,225.911,550.458,225.911z"/>
				<path fill="#DCEDFF" d="M548.205,229.766c0.005,0.588-0.01,1.172,0.136,1.732c0.104,0.561,0.291,1.108,0.603,1.565
					c0.576,0.963,1.646,1.456,2.752,1.461c1.108,0.025,2.236-0.266,3.316-0.663c1.089-0.392,2.13-0.919,3.193-1.425
					c-0.475,0.346-0.969,0.667-1.459,0.998c-0.523,0.271-1.029,0.583-1.575,0.818c-1.075,0.5-2.262,0.834-3.496,0.82l-0.463-0.022
					l-0.459-0.104c-0.311-0.047-0.595-0.199-0.88-0.334c-0.535-0.326-1.027-0.769-1.292-1.335
					C547.974,232.182,547.966,230.904,548.205,229.766z"/>
				<path fill="#DCEDFF" d="M572.376,304.678c0.685-1.096-4.521-21.232-4.521-25.068c0-3.835-0.548-6.712-0.822-8.493
					c-0.273-1.78,4.371-10.137,5.405-15.479c0.179-0.928,0.538-2.144,0.999-3.527l-4.056-3.194
					c-3.026,7.014-5.491,19.343-8.095,22.357c-2.603,3.014-8.63,4.246-8.63,4.246s5.766,1.37,8.362,0.822
					c0,0,1.942,10.822,1.585,16.164c-0.358,5.343-1.442,13.425-1.585,14.521c-0.054,0.409-0.067,1.836-0.063,3.462
					C567.279,308.055,571.989,305.297,572.376,304.678z"/>
				<path fill="#FFC5C7" d="M561.644,213.985c-0.317,5.716-0.227,9.644,0.961,10.739c0,0-2.868,9.485-11.507,8.676
					c-2.923-0.274-2.283-5.206-0.64-7.489l-0.365-7.011L561.644,213.985z"/>
				<path fill="#FE8A8B" d="M562.016,223.717L562.016,223.717c-0.617-1.753-0.626-5.17-0.372-9.732l-11.551,4.915l0.234,4.496l0,0
					C552.246,224.287,562.016,223.717,562.016,223.717z"/>
			</g>
			<g>
				<path fill="#FFC5C7" d="M589.103,260.217c1.735,2.648,3.836,9.224,2.648,12.237s-12.146,16.438-17.077,21.461
					s-6.027,5.845-6.941,7.488c-0.913,1.645-5.296,8.425-6.393,9.452c-1.096,1.027-2.944,1.164-2.944,1.164
					s-1.485,1.507-4.099,1.233c0,0-2.408,1.575-4.258,1.986c0,0-0.686,1.163-1.302,1.267s-1.301-1.13,0-3.596
					c1.302-2.466,3.22-3.493,3.63-5.068c0.411-1.575,2.071-4.789,2.071-4.789s-3.44,3.282-5.427,3.488
					c-1.986,0.205-2.167-0.959-1.015-1.918c1.151-0.959,2.658-2.397,4.097-4.247c1.438-1.849,3.15-3.082,5.685-3.425
					c2.534-0.342,4.315-0.616,5-1.096c0.686-0.479,4.305-5.137,6.913-10.159c2.607-5.023,5.083-11.441,11.192-17.078l-2.192-4.383
					L589.103,260.217z"/>
				<path fill="#FE8A8B" d="M550.146,314.925c0.587-1.389,1.565-2.573,2.625-3.628l0.417-0.383c0.124-0.119,0.338-0.271,0.388-0.341
					c0.215-0.25,0.408-0.58,0.619-0.878c0.406-0.615,0.804-1.243,1.247-1.848c-0.242,0.711-0.547,1.391-0.883,2.06
					c-0.165,0.341-0.342,0.657-0.581,0.994c-0.183,0.221-0.294,0.267-0.432,0.41l-0.395,0.379c-0.529,0.505-1.035,1.036-1.545,1.566
					C551.101,313.791,550.623,314.347,550.146,314.925z"/>
				<path fill="#FE8A8B" d="M554.438,312.779c0.431-0.738,0.925-1.377,1.374-2.05c0.466-0.663,0.886-1.328,1.319-2.061
					c-0.021,0.862-0.397,1.675-0.868,2.371C555.774,311.733,555.172,312.342,554.438,312.779z"/>
				<path fill="#FE8A8B" d="M556.421,313.071c1.269-0.358,1.975-1.052,1.975-1.052s1.849-0.137,2.944-1.164
					c0.448-0.42,1.446-1.805,2.531-3.402c-0.022,0.025-1.261,1.272-2.161,2.301c-1.268,1.45-2.9,0.971-2.9,0.971l0.32-1.336
					C559.13,309.389,557.8,312.42,556.421,313.071z"/>
				<path fill="#FE8A8B" d="M592.037,269.105c-0.146,1.25-0.232,2.243-2.325,5.523c-2.355,3.69-16.027,19.246-18.973,22.123
					c-2.944,2.876-2.877,3.06-4.826,7.604c0.824-1.285,1.516-2.405,1.819-2.953c0.914-1.644,2.01-2.466,6.941-7.488
					s15.89-18.447,17.077-21.461C592.096,271.578,592.157,270.398,592.037,269.105z"/>
				<path fill="#FE8A8B" d="M582.47,265.511l0.895,1.698c0,0-1.405,0.372-2.48,1.409l-1.742-3.373L582.47,265.511z"/>
				<path fill="#FFFFFF" d="M571.127,256.225c-2.244-5.148-2.684-13.51,0-17.911c2.685-4.4,7.262-5.985,8.317-5.457
					c1.057,0.528,3.521,7.393,6.073,10.562c2.552,3.168,9.505,12.058,9.682,12.806c0.176,0.748-5.987,6.787-17.075,11.222
					C576.805,267.975,571.127,256.225,571.127,256.225z"/>
				<path fill="#DCEDFF" d="M578.821,260.217l1.462,3.521c0,0-7.843-8.481-10.895-14.81c0.233,2.64,0.837,5.228,1.738,7.296
					c0,0,5.677,11.75,6.997,11.222c1.897-0.759,3.639-1.565,5.24-2.384L578.821,260.217z"/>
			</g>
			<g>
				<path fill="#252384" d="M567.529,206.541c2.016-4.922,4.481-10.127,1.376-12.867c0,0,3.471-1.096,5.297-0.731
					c0,0-1.826-1.096-5.479-1.461c0,0,0.719-8.311-1.193-11.872c0,0,0.007,3.653-0.998,5.114c0,0-2.009-4.292-7.945-5.937
					c-5.936-1.644-11.689-1.826-15.799,2.375c-4.109,4.201-8.922,9.587-1.995,17.716c6.927,8.128,16.059,10.229,19.986,10.777
					C564.705,210.204,567.529,206.541,567.529,206.541z"/>
				<path fill="#0C0835" d="M546.356,190.931c1.36,0.642,2.794,0.979,4.222,1.332c1.435,0.324,2.879,0.614,4.333,0.839
					c1.452,0.238,2.913,0.421,4.376,0.559c1.465,0.106,2.932,0.236,4.419,0.003c-1.375,0.648-2.942,0.82-4.446,0.851
					c-1.519,0.035-3.028-0.106-4.522-0.333c-1.49-0.253-2.967-0.598-4.397-1.102C548.919,192.582,547.492,191.936,546.356,190.931z"
					/>
				<path fill="#0C0835" d="M562.376,198.035c1.583-0.392,4.206-2.926,4.206-2.926s-2.718,1.921-8.309,1.463
					c-5.59-0.458-9.322-1.619-9.322-1.619s5.761,3.381,7.884,3.926C558.959,199.424,562.376,198.035,562.376,198.035z"/>
				<path fill="#0C0835" d="M542.924,194.336c-2.595-1.283-3.349,0.019-3.349,1.115c0,1.096,1.217,3.428,1.217,3.428
					L542.924,194.336z"/>
				<path fill="#0C0835" d="M570.296,198.363c-2.071,4.1-6.687,7.275-6.687,7.275s-1.804,2.43,0.221,3.417
					c0.084,0.041,0.179,0.077,0.271,0.113c2.1-0.906,3.428-2.626,3.428-2.626C568.678,203.737,569.969,200.843,570.296,198.363z"/>
				<path fill="#FFC5C7" d="M563.609,205.638c0,0,2.123-1.576,3.562,0c1.438,1.575-1.302,8.904-4.521,7.123
					c0,0-5.343,6.781-9.041,8.699c-3.699,1.917-6.165,0.958-7.397-0.411c-1.233-1.37-5.369-6.989-5.754-12.945
					c-0.137-2.123,0.479-6.301,0.479-7.191c0-0.891-0.548-4.384,0.206-5.411c0.753-1.027,1.78-1.164,1.78-1.164
					s4.589,2.26,8.562,2.603c0,0-1.917-1.233-2.534-1.986c0,0,7.877,2.74,13.425,3.082c0,0-0.068,3.151,0.205,4.521
					C562.855,203.925,563.609,205.638,563.609,205.638z"/>
				<path fill="#FE8A8B" d="M566.475,207.641c-0.192-1.343-1.318-1.607-2.238-0.671c-0.943,0.959-1.311,3.996-1.119,4.444
					c0.192,0.448,1.695,0.416,2.047-0.512c0.352-0.927-0.48-1.508-1.343-1.233c0,0-0.138-1.354,0.615-2.225
					c0.752-0.872,1.446-0.538,1.606-0.314C566.203,207.353,566.475,207.641,566.475,207.641z"/>
				<g>
					<path fill="#0C0835" d="M557.637,201.701c-0.302-0.302-0.626-0.583-0.967-0.849c-0.344-0.262-0.714-0.497-1.111-0.689
						c-0.395-0.192-0.807-0.399-1.257-0.434c-0.444-0.04-0.897-0.003-1.32,0.173l0.002,0.062c0.212,0.088,0.417,0.144,0.618,0.203
						l0.591,0.167c0.385,0.116,0.789,0.151,1.178,0.283c0.386,0.132,0.765,0.3,1.135,0.494c0.374,0.188,0.732,0.413,1.094,0.637
						L557.637,201.701z"/>
					<path fill="#0C0835" d="M542.6,200.163c0.381-0.194,0.779-0.336,1.189-0.421c0.408-0.09,0.822-0.136,1.235-0.146
						c0.415-0.009,0.821,0.076,1.23,0.073c0.413,0.001,0.827,0.014,1.284-0.032l0.017-0.059c-0.367-0.282-0.798-0.434-1.237-0.52
						c-0.443-0.091-0.898-0.017-1.337,0.048c-0.44,0.063-0.874,0.176-1.284,0.342c-0.407,0.17-0.799,0.382-1.133,0.663
						L542.6,200.163z"/>
					
						<ellipse transform="matrix(-0.9951 -0.0984 0.0984 -0.9951 1085.245 461.8734)" fill="#0C0835" cx="554.014" cy="204.17" rx="0.623" ry="1.054"/>
					
						<ellipse transform="matrix(-0.9952 -0.0984 0.0984 -0.9952 1066.9585 459.4574)" fill="#0C0835" cx="544.805" cy="203.427" rx="0.509" ry="1.054"/>
					<path fill="#FE8A8B" d="M550.12,209.741c-0.834,0.551-2.002,0.539-2.824-0.029c0.066,0.447,0.234,0.882,0.656,1.04
						c0.423,0.159,0.906,0.112,1.319-0.071C549.684,210.498,549.842,210.096,550.12,209.741z"/>
					<g>
						<path fill="#C31F2A" d="M553.047,213.14c-1.913,0.031-6.48-0.322-7.963-0.535c0.449,1.936,1.859,3.848,4.021,3.849
							C551.053,216.455,552.456,214.855,553.047,213.14z"/>
						<path fill="#FB8384" d="M551.099,215.822c-0.742-0.234-1.524-0.114-1.842-0.018c0,0-0.959-0.708-2.462-0.243
							c0.629,0.539,1.398,0.892,2.311,0.893C549.857,216.455,550.525,216.213,551.099,215.822z"/>
						<path fill="#FFFFFF" d="M546.263,214.224c1.89,0.603,4.014,0.429,5.884-0.227c0.033-0.286,0.075-0.574,0.118-0.862
							c-1.886-0.04-4.926-0.269-6.549-0.452C545.817,213.219,545.992,213.742,546.263,214.224z"/>
					</g>
				</g>
			</g>
		</g>
		<g>
			<g opacity="0.25">
				<path fill="#00264F" d="M600.513,189.889c0.41-1.106,0.89-2.123,1.432-3.049s1.303-1.718,2.297-2.372
					c0.988-0.653,2.313-1.083,3.974-1.293c0.509-0.069,1.231-0.15,2.166-0.238c0.935-0.088,1.905-0.246,2.916-0.48
					c1.009-0.232,1.921-0.578,2.726-1.04c0.81-0.459,1.364-1.088,1.662-1.89c0.212-0.571,0.234-1.139,0.066-1.698
					c-0.167-0.562-0.468-1.054-0.902-1.476c-0.438-0.423-0.967-0.75-1.585-0.979c-0.925-0.343-1.772-0.403-2.536-0.182
					s-1.437,0.546-2.008,0.97c-0.576,0.425-1.091,0.771-1.541,1.044l-5.167-7.59c1.243-1.34,2.672-2.34,4.279-2.997
					c1.603-0.659,3.318-0.989,5.146-0.993c1.826-0.004,3.67,0.338,5.523,1.026c1.473,0.546,2.871,1.307,4.201,2.278
					c1.335,0.975,2.445,2.149,3.345,3.53c0.895,1.378,1.443,2.954,1.639,4.728c0.2,1.776-0.098,3.735-0.893,5.879
					c-0.342,0.92-0.744,1.774-1.213,2.559c-0.468,0.785-1.022,1.483-1.668,2.095s-1.389,1.141-2.237,1.588
					c-0.848,0.448-1.806,0.801-2.868,1.062c-1.407,0.35-2.796,0.576-4.174,0.674c-1.379,0.101-2.577,0.276-3.594,0.529
					c-1.019,0.256-1.685,0.806-1.997,1.648L600.513,189.889z M596.783,200.476l0.193-0.519c0.92-2.482,3.679-3.748,6.161-2.827l0,0
					c2.482,0.921,3.748,3.68,2.827,6.162l-0.192,0.519c-0.921,2.482-3.68,3.748-6.162,2.827l0,0
					C597.129,205.717,595.863,202.958,596.783,200.476z"/>
				<path fill="#00264F" d="M584.708,190.815c-0.129-0.851-0.183-1.669-0.163-2.451c0.019-0.783,0.224-1.556,0.627-2.325
					c0.4-0.766,1.093-1.508,2.079-2.229c0.3-0.224,0.732-0.531,1.297-0.917c0.565-0.386,1.129-0.83,1.691-1.336
					c0.562-0.505,1.021-1.048,1.372-1.626c0.354-0.579,0.485-1.176,0.392-1.793c-0.066-0.439-0.252-0.81-0.558-1.107
					c-0.305-0.299-0.671-0.507-1.097-0.623c-0.43-0.115-0.882-0.137-1.357-0.065c-0.711,0.108-1.272,0.37-1.682,0.78
					c-0.409,0.411-0.725,0.856-0.938,1.329c-0.218,0.475-0.424,0.877-0.614,1.211l-5.979-3.018c0.319-1.294,0.878-2.437,1.671-3.424
					c0.789-0.987,1.769-1.804,2.933-2.452c1.163-0.648,2.46-1.081,3.887-1.297c1.132-0.171,2.293-0.181,3.485-0.031
					c1.195,0.151,2.319,0.508,3.381,1.071c1.059,0.563,1.965,1.375,2.716,2.438c0.755,1.062,1.258,2.417,1.508,4.066
					c0.107,0.708,0.152,1.395,0.131,2.061s-0.128,1.308-0.324,1.926c-0.195,0.618-0.483,1.219-0.866,1.804
					c-0.383,0.585-0.869,1.149-1.455,1.69c-0.773,0.721-1.58,1.355-2.425,1.905c-0.845,0.551-1.546,1.086-2.105,1.607
					c-0.56,0.523-0.79,1.109-0.691,1.757L584.708,190.815z M586.07,198.887l-0.061-0.399c-0.29-1.909,1.023-3.691,2.933-3.981l0,0
					c1.909-0.29,3.691,1.023,3.98,2.932l0.061,0.399c0.29,1.909-1.023,3.691-2.933,3.981l0,0
					C588.143,202.109,586.359,200.796,586.07,198.887z"/>
			</g>
			<g>
				<g>
					<g>
						<path fill="#F97068" d="M595.513,184.889c0.41-1.106,0.89-2.123,1.432-3.049s1.303-1.718,2.297-2.372
							c0.988-0.653,2.313-1.083,3.974-1.293c0.509-0.069,1.231-0.15,2.166-0.238c0.935-0.088,1.905-0.246,2.916-0.48
							c1.009-0.232,1.921-0.578,2.726-1.04c0.81-0.459,1.364-1.088,1.662-1.89c0.212-0.571,0.234-1.139,0.066-1.698
							c-0.167-0.562-0.468-1.054-0.902-1.476c-0.438-0.423-0.967-0.75-1.585-0.979c-0.925-0.343-1.772-0.403-2.536-0.182
							s-1.437,0.546-2.008,0.97c-0.576,0.425-1.091,0.771-1.541,1.044l-5.167-7.59c1.243-1.34,2.672-2.34,4.279-2.997
							c1.603-0.659,3.318-0.989,5.146-0.993c1.826-0.004,3.67,0.338,5.523,1.026c1.473,0.546,2.871,1.307,4.201,2.278
							c1.335,0.975,2.445,2.149,3.345,3.53c0.895,1.378,1.443,2.954,1.639,4.728c0.2,1.776-0.098,3.735-0.893,5.879
							c-0.342,0.92-0.744,1.774-1.213,2.559c-0.468,0.785-1.022,1.483-1.668,2.095s-1.389,1.141-2.237,1.588
							c-0.848,0.448-1.806,0.801-2.868,1.062c-1.407,0.35-2.796,0.576-4.174,0.674c-1.379,0.101-2.577,0.276-3.594,0.529
							c-1.019,0.256-1.685,0.806-1.997,1.648L595.513,184.889z M591.783,195.476l0.193-0.519c0.92-2.482,3.679-3.748,6.161-2.827
							l0,0c2.482,0.921,3.748,3.68,2.827,6.162l-0.192,0.519c-0.921,2.482-3.68,3.748-6.162,2.827l0,0
							C592.129,200.717,590.863,197.958,591.783,195.476z"/>
					</g>
					<g>
						<path fill="#F97068" d="M579.708,185.815c-0.129-0.851-0.183-1.669-0.163-2.451c0.019-0.783,0.224-1.556,0.627-2.325
							c0.4-0.766,1.093-1.508,2.079-2.229c0.3-0.224,0.732-0.531,1.297-0.917c0.565-0.386,1.129-0.83,1.691-1.336
							c0.562-0.505,1.021-1.048,1.372-1.626c0.354-0.579,0.485-1.176,0.392-1.793c-0.066-0.439-0.252-0.81-0.558-1.107
							c-0.305-0.299-0.671-0.507-1.097-0.623c-0.43-0.115-0.882-0.137-1.357-0.065c-0.711,0.108-1.272,0.37-1.682,0.78
							c-0.409,0.411-0.725,0.856-0.938,1.329c-0.218,0.475-0.424,0.877-0.614,1.211l-5.979-3.018
							c0.319-1.294,0.878-2.437,1.671-3.424c0.789-0.987,1.769-1.804,2.933-2.452c1.163-0.648,2.46-1.081,3.887-1.297
							c1.132-0.171,2.293-0.181,3.485-0.031c1.195,0.151,2.319,0.508,3.381,1.071c1.059,0.563,1.965,1.375,2.716,2.438
							c0.755,1.062,1.258,2.417,1.508,4.066c0.107,0.708,0.152,1.395,0.131,2.061s-0.128,1.308-0.324,1.926
							c-0.195,0.618-0.483,1.219-0.866,1.804c-0.383,0.585-0.869,1.149-1.455,1.69c-0.773,0.721-1.58,1.355-2.425,1.905
							c-0.845,0.551-1.546,1.086-2.105,1.607c-0.56,0.523-0.79,1.109-0.691,1.757L579.708,185.815z M581.07,193.887l-0.061-0.399
							c-0.29-1.909,1.023-3.691,2.933-3.981l0,0c1.909-0.29,3.691,1.023,3.98,2.932l0.061,0.399c0.29,1.909-1.023,3.691-2.933,3.981
							l0,0C583.143,197.109,581.359,195.796,581.07,193.887z"/>
					</g>
				</g>
			</g>
		</g>
	</g>
	<g>
		<g>
			<g>
				<g>
					<path fill="#F97068" d="M611.957,413.826c4.857,0.008,8.959-4.995,8.847-10.931c-0.073-3.866-0.642-7.692-1.702-11.283
						c-2.431-8.229-7.437-16.183-5.63-24.874c0.744-3.579,2.629-6.89,2.682-10.546c0.055-3.77-1.846-7.013-3.736-9.885
						c-3.148-4.783-6.503-9.359-10.045-13.707c-0.864,8.173-4.79,15.451-7.521,23.084s-4.144,17.011-0.262,23.481
						c2.771,4.62,8.017,7.402,8.625,13.174c0.247,2.351-0.374,4.745-0.506,7.13C602.334,406.267,606.514,412.757,611.957,413.826
						L611.957,413.826z"/>
				</g>
				<g>
					<path fill="#FFA6A4" d="M615.883,424.795l-2.1-9.77c-0.516-3.28-1.066-6.555-1.68-9.817
						c-1.211-6.525-2.613-13.021-4.366-19.408c-0.447-1.594-0.905-3.186-1.417-4.755c-0.245-0.789-0.523-1.564-0.79-2.345
						c-0.288-0.762-0.576-1.531-0.824-2.401c-0.441-1.688-0.643-3.391-0.707-5.074c-0.094-1.688-0.069-3.364-0.04-5.038
						c0.088-3.343,0.304-6.666,0.428-9.977c0.32-3.303,0.637-6.607,0.202-9.917c0.964,3.22,0.993,6.639,1.112,9.965
						c-0.126,3.337-0.341,6.654-0.428,9.962c-0.028,1.65-0.053,3.304,0.039,4.938c0.06,1.638,0.262,3.26,0.659,4.786
						c0.205,0.731,0.495,1.521,0.797,2.314c0.271,0.793,0.555,1.584,0.803,2.383c0.521,1.593,0.982,3.199,1.433,4.808
						c1.769,6.443,3.176,12.967,4.393,19.52c0.62,3.274,1.158,6.563,1.695,9.852C615.398,418.144,615.704,421.463,615.883,424.795z"
						/>
					<path fill="#FFA6A4" d="M599.479,356.681c0.956,0.666,1.815,1.348,2.711,2.018c0.44,0.341,0.842,0.742,1.282,1.101
						c0.431,0.37,0.918,0.672,1.428,0.899l-0.159,0.02c0.541-0.503,1.026-1.072,1.556-1.589c0.538-0.505,1.079-1.008,1.636-1.491
						c1.131-0.946,2.342-1.796,3.668-2.508l0.057,0.067c-0.938,1.177-1.991,2.216-3.125,3.158c-0.576,0.461-1.167,0.903-1.761,1.343
						c-0.603,0.429-1.249,0.804-1.842,1.245l-0.083,0.063l-0.076-0.043c-0.503-0.289-0.998-0.563-1.528-0.8
						c-0.521-0.25-1.054-0.497-1.521-0.841c-0.925-0.691-1.76-1.544-2.308-2.584L599.479,356.681z"/>
					<path fill="#FFA6A4" d="M596.07,370.334c0.813,0.264,1.584,0.589,2.342,0.938c0.756,0.353,1.508,0.709,2.204,1.182
						c0.705,0.455,1.412,0.917,2.186,1.236c0.764,0.339,1.582,0.563,2.367,0.835l-0.395,0.09c0.805-1.038,1.618-2.068,2.522-3.02
						c0.917-0.938,1.844-1.869,2.904-2.682l0.065,0.058c-0.672,1.155-1.479,2.191-2.295,3.219c-0.83,1.017-1.75,1.953-2.679,2.882
						l-0.193,0.193l-0.201-0.104c-0.751-0.391-1.458-0.855-2.213-1.221c-0.744-0.387-1.547-0.648-2.342-0.934
						c-0.805-0.267-1.542-0.676-2.266-1.104c-0.723-0.431-1.413-0.923-2.052-1.492L596.07,370.334z"/>
					<path fill="#FFA6A4" d="M605.558,388.643c0.715,0.061,1.318,0.276,1.911,0.518c0.289,0.138,0.553,0.348,0.846,0.499
						c0.284,0.156,0.626,0.231,0.919,0.206l-0.128,0.062c0.2-0.353,0.354-0.739,0.569-1.079c0.223-0.334,0.43-0.68,0.676-0.995
						c0.499-0.625,1.092-1.176,1.818-1.622l0.068,0.055c-0.264,0.81-0.661,1.516-1.151,2.146c-0.249,0.313-0.536,0.596-0.81,0.891
						c-0.28,0.288-0.62,0.529-0.916,0.806l-0.075,0.07l-0.052-0.009c-0.367-0.063-0.672-0.145-1.022-0.164
						c-0.342-0.028-0.702-0.035-1.025-0.142c-0.637-0.24-1.224-0.599-1.67-1.164L605.558,388.643z"/>
					<path fill="#FFA6A4" d="M607.1,404.12c0.495-0.038,0.958-0.034,1.42-0.008c0.461,0.027,0.92,0.041,1.373,0.163
						c0.454,0.111,0.914,0.268,1.382,0.283c0.466,0.03,0.939-0.057,1.392-0.155l-0.157,0.057c0.291-0.324,0.614-0.605,0.94-0.883
						c0.323-0.282,0.647-0.562,1.004-0.799c0.709-0.48,1.457-0.908,2.301-1.209l0.053,0.07c-0.523,0.728-1.142,1.327-1.8,1.875
						c-0.327,0.276-0.686,0.511-1.047,0.742c-0.356,0.236-0.717,0.469-1.109,0.658l-0.126,0.061l-0.031-0.004
						c-0.486-0.063-0.952-0.151-1.426-0.144c-0.472-0.008-0.949,0.099-1.432,0.135c-0.482,0.047-0.958-0.053-1.425-0.167
						c-0.466-0.121-0.923-0.311-1.335-0.591L607.1,404.12z"/>
				</g>
			</g>
			<g>
				<g>
					<path fill="#FFA6A4" d="M616.45,416.995c3.356,3.457,8.646-0.764,12.134-4.764c4.386-5.029,9.101-10.843,9.611-17.952
						c0.192-2.671-0.246-5.326,0.152-7.984c0.914-6.099,5.801-10.338,8.117-15.979c3.357-8.18,0.755-17.516-2.479-25.072
						c-2.122-4.959-4.575-10.116-4.177-15.946c0.363-5.325,3.05-10.155,5.637-14.666c-6.048,0.362-12.861,1.161-17.111,6.932
						c-4.032,5.474-4.239,13.427-3.854,20.458c0.386,7.03,1.013,14.586-1.946,20.974c-4.019,8.675-14.014,13.799-14.289,23.448
						c-0.139,4.866,2.445,8.807,4.214,12.955c1.149,2.695,1.864,6.146,1.393,9.17c-0.497,3.184,0.287,6.326,2.283,8.14
						L616.45,416.995z"/>
				</g>
				<g>
					<path fill="#F97068" d="M615.883,431.155c0.373-2.327,0.803-4.638,1.196-6.95c0.36-2.32,0.749-4.631,1.03-6.952
						c0.906-4.576,1.598-9.19,1.821-13.816c0.125-2.317,0.079-4.624,0.091-7.007c0.005-2.384,0.279-4.85,0.885-7.188
						c0.603-2.343,1.431-4.571,2.352-6.787c0.973-2.186,2.058-4.331,3.318-6.352c2.437-4.07,5.546-7.719,6.521-12.058
						c0.498-2.153,0.49-4.411,0.188-6.655c-0.363-2.218-0.94-4.518-1.431-6.825c-0.983-4.606-1.876-9.284-2.001-14.102
						c0.108-2.408,0.458-4.828,1.202-7.12c0.727-2.297,1.898-4.426,3.395-6.244c-1.195,2.03-2.022,4.233-2.452,6.488
						c-0.428,2.259-0.467,4.562-0.281,6.844c0.117,4.581,0.982,9.178,1.959,13.742c0.483,2.284,1.058,4.539,1.454,6.956
						c0.324,2.402,0.344,4.91-0.219,7.336c-0.549,2.433-1.689,4.662-2.943,6.686c-1.26,2.033-2.597,3.946-3.803,5.924
						c-1.226,1.964-2.262,4.019-3.197,6.119c-0.881,2.116-1.69,4.299-2.257,6.506c-0.567,2.212-0.819,4.441-0.827,6.752
						c-0.012,2.311,0.035,4.701-0.093,7.073c-0.225,4.757-0.951,9.45-1.84,14.084C618.772,422.19,617.406,426.7,615.883,431.155z"/>
					<path fill="#F97068" d="M636.141,334.929c-0.152,0.766-0.446,1.436-0.785,2.075c-0.335,0.643-0.724,1.248-1.283,1.739
						c-0.555,0.493-1.079,1.007-1.429,1.64c-0.367,0.62-0.595,1.335-0.91,1.99l-0.29,0.602l-0.628-0.532
						c-0.42-0.354-0.819-0.727-1.217-1.103c-0.403-0.369-0.769-0.773-1.107-1.203c-0.669-0.866-1.291-1.775-1.733-2.851l0.104-0.097
						c1.036,0.527,1.893,1.221,2.703,1.956c0.4,0.372,0.774,0.769,1.111,1.199c0.342,0.427,0.682,0.854,1.002,1.301l-0.919,0.07
						c0.49-0.538,1.069-1.016,1.508-1.588c0.456-0.56,0.737-1.238,0.988-1.938c0.247-0.701,0.664-1.288,1.135-1.839
						c0.467-0.553,0.979-1.075,1.632-1.502L636.141,334.929z"/>
					<path fill="#F97068" d="M641.835,355.188c-0.098,1.078-0.462,2.12-0.969,3.066c-0.52,0.938-1.137,1.833-1.966,2.52
						c-0.826,0.689-1.677,1.313-2.409,2.061c-0.762,0.723-1.419,1.546-2.24,2.271l-0.429,0.379l-0.388-0.576l-1.356-2.012
						c-0.459-0.667-0.902-1.339-1.321-2.025l-1.276-2.042c-0.438-0.672-0.857-1.359-1.386-2.001l0.083-0.115
						c0.797,0.331,1.486,0.869,2.104,1.445c0.616,0.583,1.182,1.211,1.68,1.882c0.513,0.662,0.961,1.366,1.354,2.098
						c0.397,0.732,0.783,1.461,1.111,2.238l-0.815-0.197c0.867-0.483,1.807-0.996,2.578-1.674c0.799-0.657,1.399-1.523,1.938-2.399
						c0.538-0.878,1.153-1.661,1.761-2.468c0.605-0.81,1.158-1.641,1.813-2.499L641.835,355.188z"/>
					<path fill="#F97068" d="M636.313,379.57c-0.726,1.003-1.696,1.797-2.723,2.466c-1.04,0.648-2.144,1.195-3.327,1.503
						c-1.184,0.307-2.385,0.492-3.523,0.868c-1.152,0.345-2.26,0.806-3.439,1.177l-0.242,0.076l-0.258-0.257
						c-0.742-0.738-1.345-1.55-1.95-2.379c-0.587-0.838-1.148-1.704-1.564-2.652c-0.437-0.936-0.779-1.922-0.998-2.942
						c-0.202-1.022-0.268-2.088-0.079-3.104l0.142-0.001c0.237,0.988,0.578,1.896,0.957,2.786c0.374,0.893,0.849,1.739,1.298,2.596
						l1.443,2.538c0.489,0.845,1.043,1.67,1.56,2.486l-0.5-0.181c1.163-0.096,2.37-0.233,3.509-0.56
						c1.151-0.302,2.216-0.877,3.255-1.443c1.032-0.582,2.108-1.019,3.167-1.513c1.056-0.5,2.086-1.022,3.181-1.57L636.313,379.57z"
						/>
					<path fill="#F97068" d="M628.176,401.334c-0.402,0.559-0.947,0.994-1.542,1.313c-0.598,0.309-1.237,0.563-1.906,0.627
						c-0.672,0.066-1.352-0.062-2-0.099c-0.655-0.048-1.28,0.003-1.962,0.047l-0.08,0.005l-0.146-0.137
						c-0.514-0.481-1.051-0.945-1.492-1.479c-0.452-0.526-0.918-1.043-1.319-1.606c-0.402-0.563-0.751-1.166-1.076-1.785
						c-0.325-0.62-0.61-1.271-0.826-1.971l0.115-0.084c0.604,0.415,1.14,0.88,1.635,1.375s0.966,1.008,1.384,1.56
						c0.419,0.551,0.772,1.149,1.141,1.737c0.379,0.581,0.662,1.231,0.969,1.865l-0.227-0.132c0.588,0.161,1.239,0.211,1.855,0.091
						c0.622-0.113,1.208-0.406,1.785-0.591c0.583-0.174,1.167-0.292,1.758-0.436c0.603-0.123,1.177-0.308,1.857-0.419
						L628.176,401.334z"/>
				</g>
			</g>
			<g>
				<path fill="#B4DFF9" d="M635.149,448.942h-30.064c-1.759,0-3.255-1.285-3.52-3.024l-4.811-31.583
					c-0.328-2.155,1.34-4.097,3.52-4.097h39.686c2.181,0,3.849,1.941,3.521,4.097l-4.812,31.583
					C638.404,447.657,636.909,448.942,635.149,448.942z"/>
				<path fill="#A2D4F9" d="M639.96,410.238h-6.138c2.18,0,3.848,1.941,3.52,4.097l-4.811,31.583
					c-0.265,1.739-1.76,3.024-3.52,3.024h6.138c1.76,0,3.255-1.285,3.52-3.024l4.812-31.583
					C643.809,412.18,642.141,410.238,639.96,410.238z"/>
			</g>
		</g>
		<g>
			<g>
				<g>
					<path fill="#F97068" d="M187.813,359.389c0.159,1.287-0.11,2.584-0.735,3.721c-2.278,4.145-3.434,8.905-3.284,13.635
						c0.098,3.115,0.738,6.303-0.11,9.303c-1.463,5.175-6.925,8.375-8.683,13.457c-1.558,4.507-0.109,10.173-3.348,13.672
						c-0.803,0.867-2.049,1.531-3.146,1.092c-0.551-0.221-0.963-0.681-1.355-1.126c-3.713-4.217-7.688-9.342-6.542-14.843
						c1.076-5.167,6.401-8.659,7.41-13.84c0.825-4.233-1.339-9.117,1.086-12.683c0.669-0.984,1.627-1.736,2.358-2.676
						c2.885-3.703,1.816-9.606,5.139-12.922c1.084-1.081,2.44-1.694,3.918-2.01C184.004,353.424,187.375,355.852,187.813,359.389
						L187.813,359.389z"/>
				</g>
				<g>
					<path fill="#FFA6A4" d="M166.696,425.046c-0.223-2.756-0.318-5.514-0.42-8.278c0.125-2.756,0.272-5.513,0.508-8.268
						c0.236-2.755,0.546-5.509,1.033-8.247c0.495-2.721,1.149-5.501,2.294-8.059c2-5.056,3.616-10.343,5.249-15.581l2.369-7.898
						c0.973-2.58,1.923-5.165,2.841-7.769c-0.402,2.739-1.029,5.429-1.579,8.138l-2.374,7.915
						c-1.643,5.266-3.244,10.52-5.293,15.701c-1.108,2.478-1.72,5.099-2.212,7.782c-0.477,2.681-0.783,5.401-1.017,8.129
						c-0.229,2.729-0.39,5.469-0.495,8.211L166.696,425.046z"/>
					<path fill="#FFA6A4" d="M181.249,369.178c-0.455,0.688-1.04,1.204-1.669,1.66c-0.323,0.216-0.702,0.357-1.054,0.535
						c-0.357,0.171-0.669,0.401-0.959,0.663l-0.125,0.113l-0.112-0.171c-0.263-0.402-0.583-0.775-0.834-1.183
						c-0.242-0.412-0.498-0.817-0.714-1.243c-0.42-0.855-0.733-1.765-0.892-2.75l0.079-0.039c0.689,0.723,1.224,1.521,1.652,2.373
						c0.208,0.43,0.376,0.878,0.558,1.32c0.172,0.446,0.276,0.928,0.438,1.38l-0.237-0.058c0.335-0.199,0.648-0.43,0.916-0.72
						c0.273-0.283,0.52-0.603,0.821-0.847c0.621-0.466,1.285-0.872,2.081-1.105L181.249,369.178z"/>
					<path fill="#FFA6A4" d="M180.579,378.601c-0.474,0.391-0.962,0.812-1.474,1.165c-0.511,0.361-1.03,0.71-1.591,0.99
						c-0.567,0.271-1.169,0.487-1.714,0.797c-0.548,0.303-1.048,0.685-1.538,1.082l-0.172,0.14l-0.174-0.228
						c-0.755-0.99-1.402-2.042-2.012-3.115c-0.574-1.093-1.085-2.221-1.453-3.431l0.076-0.043c0.847,0.939,1.549,1.96,2.189,3.015
						c0.604,1.076,1.171,2.173,1.63,3.331l-0.346-0.088c0.572-0.267,1.135-0.547,1.651-0.903c0.519-0.351,0.982-0.793,1.483-1.175
						c0.506-0.374,1.058-0.676,1.621-0.957c0.571-0.273,1.137-0.539,1.804-0.665L180.579,378.601z"/>
					<path fill="#FFA6A4" d="M177.23,391.038c-0.519,0.523-1.098,0.909-1.695,1.257c-0.589,0.363-1.236,0.604-1.926,0.767
						c-0.688,0.167-1.31,0.47-1.864,0.894c-0.553,0.42-1.095,0.883-1.648,1.246l-0.418,0.273l-0.311-0.466
						c-0.458-0.687-0.874-1.396-1.197-2.156c-0.325-0.76-0.612-1.54-0.772-2.39l0.096-0.053c0.632,0.591,1.137,1.251,1.605,1.932
						c0.469,0.681,0.846,1.411,1.18,2.166l-0.729-0.192c0.632-0.349,1.304-0.548,1.969-0.781c0.665-0.229,1.271-0.558,1.818-1.013
						c0.543-0.462,1.139-0.826,1.793-1.065c0.648-0.252,1.319-0.456,2.053-0.517L177.23,391.038z"/>
				</g>
			</g>
			<g>
				<g>
					<path fill="#FFA6A4" d="M162.312,425.585c-2.154-0.354-10.231-2.938-9.667-5.047c2.421-9.052,4.842-19.321-3.542-23.749
						c-4.035-2.131-9.099-3.213-11.396-7.155c-2.366-4.061-0.625-9.221,1.5-13.413c2.123-4.192,4.68-8.68,3.77-13.291
						c-0.953-4.827-5.518-8.39-6.249-13.257c-0.997-6.645,5.456-11.999,11.654-14.593c2.108-0.883,4.426-1.637,6.647-1.101
						c1.587,0.383,2.963,1.4,4.051,2.617c4.354,4.869,4.177,12.215,3.183,18.67c-0.994,6.456-2.514,13.273-0.083,19.336
						c1.728,4.306,5.424,8.355,4.434,12.888c-0.396,1.815-1.529,3.399-1.96,5.207c-1.164,4.872,2.884,9.262,4.739,13.915
						c2.394,6.004,0.75,13.341-3.787,17.896C164.743,425.375,163.52,425.783,162.312,425.585L162.312,425.585z"/>
				</g>
				<g>
					<path fill="#F97068" d="M163.074,425.686c-0.499-3.584-0.998-7.154-1.636-10.698c-0.152-0.887-0.338-1.769-0.48-2.654
						c-0.135-0.888-0.214-1.782-0.361-2.667c-0.267-1.774-0.565-3.542-0.904-5.301c-0.684-3.511-1.501-7.007-2.702-10.332
						c-0.602-1.654-1.316-3.274-2.259-4.671c-0.468-0.696-1.021-1.313-1.634-1.729c-0.807-0.53-1.577-1.213-2.179-2.026
						c-1.243-1.646-1.617-3.737-1.572-5.621c0.042-1.911,0.403-3.733,0.807-5.515c0.83-3.555,1.875-6.988,2.456-10.485
						c0.59-3.479,0.705-7.043-0.214-10.38c-0.283-0.814-0.505-1.644-0.773-2.473c-0.273-0.826-0.629-1.629-1.03-2.414
						c-0.805-1.571-1.854-3.035-3.017-4.426c1.425,1.117,2.747,2.409,3.849,3.903c0.554,0.743,1.072,1.525,1.513,2.355
						c0.457,0.822,0.842,1.696,1.042,2.619c1.005,3.652,0.862,7.477,0.25,11.086c-0.604,3.628-1.667,7.114-2.475,10.582
						c-0.395,1.732-0.73,3.472-0.765,5.174c-0.036,1.695,0.292,3.351,1.25,4.616c0.474,0.636,1.068,1.175,1.767,1.635
						c0.883,0.603,1.537,1.372,2.077,2.165c1.077,1.599,1.817,3.313,2.45,5.041c1.25,3.466,2.077,7.02,2.772,10.585
						c0.344,1.783,0.646,3.573,0.916,5.366c0.124,0.898,0.292,1.79,0.399,2.69c0.092,0.902,0.132,1.811,0.189,2.715
						C163.007,418.448,163.142,422.066,163.074,425.686z"/>
					<path fill="#F97068" d="M148.768,355.031c0.62,0.215,1.14,0.578,1.622,0.963c0.478,0.393,0.934,0.808,1.269,1.334
						c0.34,0.522,0.644,1.073,1.079,1.502c0.419,0.444,0.925,0.806,1.411,1.195l-0.639,0.04c0.215-0.464,0.481-0.898,0.725-1.344
						c0.251-0.44,0.503-0.88,0.801-1.288c0.28-0.42,0.6-0.814,0.903-1.217c0.307-0.403,0.652-0.775,0.93-1.203l0.108,0.019
						c0.024,0.564-0.147,1.088-0.319,1.582c-0.189,0.491-0.4,0.968-0.655,1.417c-0.238,0.461-0.54,0.879-0.845,1.293
						c-0.314,0.409-0.615,0.823-0.976,1.202l-0.4,0.42l-0.239-0.38c-0.327-0.519-0.642-1.058-1.05-1.509
						c-0.391-0.468-0.922-0.805-1.424-1.163c-0.505-0.356-0.903-0.811-1.294-1.272c-0.388-0.469-0.749-0.951-1.074-1.506
						L148.768,355.031z"/>
					<path fill="#F97068" d="M156.598,368.736c-0.256,0.616-0.591,1.179-0.965,1.706c-0.381,0.521-0.778,1.028-1.234,1.481
						c-0.466,0.443-1,0.822-1.5,1.23c-0.49,0.418-0.922,0.888-1.314,1.4l-0.125,0.164l-0.177-0.141
						c-0.652-0.519-1.169-0.992-1.684-1.545c-0.487-0.556-1.005-1.084-1.458-1.662c-0.457-0.575-0.883-1.172-1.288-1.785
						c-0.409-0.611-0.776-1.251-1.202-1.848l0.062-0.091c0.715,0.338,1.271,0.861,1.824,1.36c0.544,0.513,1.048,1.057,1.516,1.628
						c0.472,0.567,0.873,1.189,1.311,1.779c0.428,0.577,0.789,1.295,1.195,1.801l-0.301,0.022c0.496-0.406,0.943-0.864,1.327-1.378
						c0.375-0.524,0.711-1.082,1.105-1.583c0.404-0.493,0.864-0.935,1.321-1.378c0.466-0.437,0.96-0.847,1.5-1.23L156.598,368.736z"
						/>
					<path fill="#F97068" d="M142.195,379.317c0.68,0.798,1.385,1.534,2.106,2.235c0.723,0.705,1.5,1.32,2.255,1.998
						c0.771,0.654,1.644,1.24,2.633,1.529c0.981,0.31,2.022,0.348,3.025,0.337l-0.449,0.316c0.177-0.846,0.44-1.643,0.717-2.449
						c0.272-0.805,0.621-1.587,1.041-2.333c0.416-0.749,0.91-1.464,1.492-2.109c0.592-0.629,1.278-1.219,2.097-1.512l0.055,0.095
						c-0.62,0.562-1.098,1.209-1.513,1.901c-0.422,0.686-0.78,1.411-1.131,2.141l-1.008,2.225c-0.332,0.746-0.623,1.521-0.913,2.276
						l-0.141,0.364l-0.309-0.048c-1.069-0.168-2.083-0.529-3.074-0.878c-0.979-0.382-1.986-0.718-2.949-1.211
						c-0.974-0.477-1.793-1.215-2.48-2.037c-0.687-0.824-1.246-1.761-1.552-2.793L142.195,379.317z"/>
					<path fill="#F97068" d="M161.672,387.414c0.33,0.793,0.443,1.657,0.421,2.513c-0.036,0.854-0.17,1.717-0.47,2.522
						c-0.315,0.8-0.776,1.535-1.293,2.201l-1.507,2.003l-0.107,0.143l-0.174-0.123c-0.815-0.58-1.743-1.02-2.628-1.481
						c-0.882-0.475-1.798-0.879-2.714-1.269c-0.915-0.395-1.828-0.794-2.768-1.146c-0.932-0.383-1.891-0.688-2.864-1.054
						l0.017-0.108c2.077-0.045,4.175,0.396,6.085,1.237c0.958,0.418,1.859,0.954,2.731,1.521c0.869,0.58,1.644,1.278,2.403,1.998
						l-0.281,0.019c0.558-0.588,1.067-1.238,1.391-1.985c0.362-0.729,0.541-1.523,0.788-2.267c0.482-1.5,0.788-3.044,0.864-4.697
						L161.672,387.414z"/>
				</g>
			</g>
			<g>
				<g>
					<path fill="#B4DFF9" d="M176.956,448.942H153.9c-2.14,0-3.959-1.85-4.281-4.354l-3.65-28.361
						c-0.399-3.103,1.63-5.897,4.281-5.897h30.356c2.651,0,4.681,2.795,4.281,5.897l-3.65,28.361
						C180.915,447.093,179.096,448.942,176.956,448.942z"/>
				</g>
				<path fill="#A2D4F9" d="M180.606,410.329h-5.021c2.652,0,4.681,2.795,4.281,5.897l-3.649,28.361
					c-0.322,2.505-2.142,4.354-4.282,4.354h5.021c2.14,0,3.959-1.85,4.281-4.354l3.65-28.361
					C185.287,413.124,183.257,410.329,180.606,410.329z"/>
			</g>
		</g>
	</g>
	<g>
		<g>
			<path fill="#A2D4F9" d="M113.454,299.641H43.805c-3.783,0-6.85-3.066-6.85-6.85V256.57c0-3.782,3.066-6.849,6.85-6.849h69.649
				c3.783,0,6.85,3.066,6.85,6.849v36.221C120.304,296.574,117.237,299.641,113.454,299.641z"/>
			<path fill="#B4DFF9" d="M115.807,299.641H41.452c-2.483,0-4.497-2.013-4.497-4.496l41.674-27.662l41.674,27.662
				C120.304,297.628,118.291,299.641,115.807,299.641z"/>
			<path fill="#FAFDFF" d="M115.807,249.722H41.452c-2.483,0-4.497,2.013-4.497,4.496l41.674,27.661l41.674-27.661
				C120.304,251.734,118.291,249.722,115.807,249.722z"/>
		</g>
		<g>
			<path fill="#A2D4F9" d="M611.4,68.671H445.07c-5.182,0-9.382,4.201-9.382,9.383v38.901c0,5.182,4.2,9.383,9.382,9.383h16.707
				l-5.694,14.054l18.932-14.054H611.4c5.182,0,9.382-4.201,9.382-9.383V78.054C620.782,72.872,616.582,68.671,611.4,68.671z"/>
			<path fill="#FFFFFF" d="M600.42,89.851H473.656c-1.21,0-2.191-0.981-2.191-2.192s0.981-2.192,2.191-2.192H600.42
				c1.211,0,2.192,0.981,2.192,2.192S601.631,89.851,600.42,89.851z M602.612,97.504c0-1.21-0.981-2.192-2.192-2.192H456.051
				c-1.211,0-2.191,0.981-2.191,2.192s0.98,2.192,2.191,2.192H600.42C601.631,99.696,602.612,98.715,602.612,97.504z
				 M539.229,107.35c0-1.21-0.981-2.192-2.191-2.192h-80.987c-1.211,0-2.191,0.981-2.191,2.192s0.98,2.192,2.191,2.192h80.987
				C538.248,109.542,539.229,108.56,539.229,107.35z"/>
		</g>
		<path fill="#A2D4F9" d="M645.602,242.029c-6.465,6.464-7.44,16.314-2.972,23.827l-32.892,32.892c-0.674,0.674-0.674,1.766,0,2.439
			l4.387,4.387c0.674,0.674,1.766,0.674,2.439,0l2.336-2.336l6.077,6.077c0.674,0.674,1.766,0.674,2.439,0l3.593-3.593
			c0.674-0.674,0.674-1.766,0-2.439l-6.077-6.077l3.147-3.147l5.192,5.192c0.673,0.674,1.766,0.674,2.438,0l3.594-3.593
			c0.674-0.674,0.674-1.766,0-2.439l-5.192-5.192l15.344-15.344c7.513,4.469,17.363,3.493,23.827-2.971
			c7.645-7.645,7.645-20.038,0-27.683C665.639,234.385,653.245,234.385,645.602,242.029z M667.155,263.584
			c-4.26,4.26-11.166,4.26-15.426,0c-4.26-4.261-4.26-11.167,0-15.427s11.166-4.26,15.426,0S671.415,259.323,667.155,263.584z"/>
		<g>
			<path fill="#FFFFFF" d="M95.126,360.28c-0.543-1.545-0.933-3.056-1.176-4.525s-0.132-2.989,0.349-4.569
				c0.476-1.574,1.509-3.207,3.096-4.905c0.482-0.525,1.182-1.252,2.101-2.175c0.92-0.924,1.817-1.953,2.688-3.1
				c0.872-1.144,1.539-2.321,1.989-3.527c0.457-1.208,0.492-2.372,0.098-3.492c-0.28-0.798-0.76-1.426-1.436-1.873
				c-0.677-0.45-1.434-0.71-2.271-0.775c-0.844-0.063-1.698,0.057-2.562,0.36c-1.292,0.454-2.25,1.143-2.869,2.056
				c-0.62,0.914-1.05,1.857-1.283,2.817c-0.239,0.965-0.481,1.79-0.72,2.481l-12.249-3.521c0.139-2.533,0.777-4.868,1.911-6.995
				c1.126-2.125,2.667-4,4.613-5.624c1.947-1.625,4.219-2.894,6.809-3.804c2.057-0.723,4.224-1.151,6.506-1.294
				c2.29-0.143,4.517,0.126,6.702,0.803c2.179,0.678,4.161,1.873,5.943,3.594c1.789,1.719,3.209,4.074,4.262,7.07
				c0.452,1.285,0.779,2.555,0.975,3.807c0.196,1.253,0.224,2.491,0.077,3.717c-0.147,1.225-0.472,2.45-0.98,3.68
				c-0.508,1.23-1.217,2.457-2.121,3.678c-1.192,1.622-2.474,3.095-3.858,4.422c-1.384,1.33-2.507,2.58-3.368,3.753
				c-0.86,1.177-1.083,2.354-0.67,3.531L95.126,360.28z M100.535,374.892l-0.255-0.725c-1.218-3.467,0.604-7.266,4.071-8.484l0,0
				c3.467-1.218,7.266,0.604,8.484,4.071l0.254,0.726c1.219,3.467-0.604,7.265-4.071,8.483h0
				C105.552,380.182,101.754,378.358,100.535,374.892z"/>
		</g>
	</g>
</g>
</svg>
