<svg xmlns="http://www.w3.org/2000/svg" enable-background="new 0 0 512 512" viewBox="0 0 512 512"><rect width="460.075" height="24.404" x="25.962" y="438.106" fill="#a8b2b4"/><rect width="460.075" height="24.404" x="25.962" y="438.106" fill="#d7e9ff"/><rect width="504.123" height="24.404" x="3.938" y="462.491" fill="#94c1ff"/><rect width="433.162" height="344.942" x="39.419" y="93.164" fill="#94c1ff"/><path fill="#94c1ff" d="M472.572,35.672v40.283H39.437V35.672c0-5.833,5.75-10.565,12.839-10.565h407.458C466.822,25.107,472.572,29.839,472.572,35.672z"/><rect width="127.757" height="200.155" x="319.619" y="237.95" fill="#fff"/><rect width="229.79" height="165.881" x="64.626" y="237.951" fill="#d7e9ff"/><polygon fill="#fff" points="294.403 312.006 294.403 329.807 188.423 329.807 188.423 403.848 170.622 403.848 170.622 329.807 64.642 329.807 64.642 312.006 170.622 312.006 170.622 237.965 188.423 237.965 188.423 312.006"/><path fill="#116fff" d="M294.416,234.013H64.624c-2.177,0-3.938,1.761-3.938,3.938v165.882c0,2.177,1.761,3.938,3.938,3.938h105.92c0.027,0,0.049,0.015,0.076,0.015h17.803c0.027,0,0.049-0.015,0.076-0.015h105.916c2.177,0,3.938-1.761,3.938-3.938V237.952C298.354,235.775,296.592,234.013,294.416,234.013z M290.477,308.068h-98.116V241.89h98.116V308.068z M184.485,329.806v70.09h-9.927v-70.09c0-2.177-1.761-3.938-3.938-3.938H68.582v-9.923H170.62c2.177,0,3.938-1.761,3.938-3.938v-70.101h9.927v70.101c0,2.177,1.761,3.938,3.938,3.938h102.042v9.923H188.424C186.247,325.867,184.485,327.629,184.485,329.806z M166.682,241.89v66.178H68.563V241.89H166.682z M68.563,333.744h98.119v66.151H68.563V333.744z M192.362,399.895v-66.151h98.116v66.151H192.362z"/><path fill="#fff" d="M78.78 165.692h70.89v14.848c0 9.767-3.978 18.668-10.397 25.048-6.42 6.419-15.242 10.397-25.048 10.397-19.573 0-35.445-15.872-35.445-35.445V165.692zM433.228 165.692v14.848c0 9.767-3.978 18.668-10.397 25.048-6.42 6.419-15.242 10.397-25.048 10.397-19.573 0-35.445-15.872-35.445-35.445v-14.848H433.228zM220.56 165.692h70.89v14.848c0 9.767-3.978 18.668-10.397 25.048-6.42 6.419-15.242 10.397-25.048 10.397-19.573 0-35.445-15.872-35.445-35.445V165.692z"/><path fill="#d7e9ff" d="M7.891 165.692h70.89v14.848c0 9.767-3.978 18.668-10.397 25.048-6.42 6.419-15.242 10.397-25.048 10.397-19.573 0-35.445-15.872-35.445-35.445V165.692zM291.449 165.692h70.89v14.848c0 9.767-3.978 18.668-10.397 25.048-6.42 6.419-15.242 10.397-25.048 10.397-19.573 0-35.445-15.872-35.445-35.445V165.692zM149.67 165.692h70.89v14.848c0 9.767-3.978 18.668-10.397 25.048-6.42 6.419-15.242 10.397-25.048 10.397-19.573 0-35.445-15.872-35.445-35.445V165.692zM504.118 165.692v14.848c0 9.767-3.978 18.668-10.397 25.048-6.42 6.419-15.242 10.397-25.048 10.397-19.573 0-35.445-15.872-35.445-35.445v-14.848H504.118z"/><polygon fill="#d7e9ff" points="101.302 75.951 78.776 165.695 7.886 165.695 39.422 75.951"/><polygon fill="#fff" points="163.181 75.951 149.665 165.695 78.776 165.695 101.302 75.951"/><polygon fill="#d7e9ff" points="225.06 75.951 220.555 165.695 149.665 165.695 163.181 75.951"/><polygon fill="#fff" points="286.939 75.951 291.445 165.695 220.555 165.695 225.06 75.951"/><polygon fill="#d7e9ff" points="348.819 75.951 362.334 165.695 291.445 165.695 286.939 75.951"/><polygon fill="#fff" points="410.698 75.951 433.224 165.695 362.334 165.695 348.819 75.951"/><polygon fill="#d7e9ff" points="472.577 75.951 504.113 165.695 433.224 165.695 410.698 75.951"/><path fill="#116fff" d="M508.062,458.553h-18.088v-20.447c0-2.177-1.762-3.938-3.938-3.938h-9.515V219.136c7.513-1.517,14.427-5.204,19.976-10.756c7.454-7.411,11.561-17.299,11.561-27.841v-14.845c0-0.055-0.029-0.1-0.031-0.154c-0.016-0.387-0.068-0.772-0.2-1.146l-0.073-0.209c-0.006-0.012-0.008-0.025-0.013-0.038l-31.232-88.887V35.671c0-7.996-7.526-14.504-16.776-14.504H52.275c-9.25,0-16.777,6.508-16.777,14.504v39.566L4.169,164.393c-0.139,0.396-0.188,0.806-0.198,1.214c-0.001,0.031-0.017,0.055-0.017,0.086v14.845c0,19.024,13.563,34.94,31.525,38.592v215.037H25.96c-2.177,0-3.938,1.762-3.938,3.938v20.447H3.938c-2.177,0-3.938,1.762-3.938,3.938v24.403c0,2.177,1.761,3.938,3.938,3.938h504.123c2.177,0,3.938-1.762,3.938-3.938v-24.403C512,460.314,510.238,458.553,508.062,458.553z M500.181,180.538c0,8.431-3.281,16.334-9.246,22.264c-5.961,5.961-13.865,9.242-22.261,9.242c-17.372,0-31.507-14.134-31.507-31.507v-10.903h63.013V180.538z M447.375,234.013H319.619c-2.177,0-3.938,1.762-3.938,3.938v196.215H43.356V219.921c10.492-0.005,20.37-4.104,27.803-11.541c3.193-3.175,5.73-6.824,7.634-10.764c6.377,13.175,19.842,22.306,35.433,22.306c10.5,0,20.384-4.1,27.822-11.542c3.193-3.175,5.73-6.824,7.635-10.764c6.377,13.175,19.842,22.306,35.433,22.306c10.5,0,20.384-4.1,27.822-11.542c3.193-3.175,5.73-6.824,7.635-10.764c6.377,13.175,19.842,22.306,35.433,22.306c10.5,0,20.384-4.1,27.822-11.542c3.193-3.175,5.73-6.824,7.635-10.764c6.377,13.175,19.842,22.306,35.433,22.306c10.499,0,20.383-4.1,27.822-11.542c3.193-3.175,5.73-6.824,7.635-10.764c6.377,13.175,19.842,22.306,35.433,22.306c10.5,0,20.384-4.1,27.822-11.542c3.193-3.175,5.73-6.824,7.635-10.764c6.373,13.166,19.824,22.293,35.402,22.305v214.247h-17.33V237.952C451.314,235.775,449.552,234.013,447.375,234.013z M323.557,334.09v-92.2h119.88v92.2H323.557z M443.437,341.967v92.2h-119.88v-92.2H443.437z M154.242,161.755l12.331-81.863h54.345l-0.24,4.784l-3.871,77.079H154.242z M216.623,169.635v10.903c0,8.431-3.281,16.334-9.246,22.264c-5.961,5.961-13.865,9.242-22.261,9.242c-17.373,0-31.507-14.134-31.507-31.507v-10.903H216.623z M146.273,161.755H83.825l20.547-81.863h54.231L146.273,161.755z M145.733,169.635v10.903c0,8.431-3.281,16.334-9.245,22.264c-5.961,5.961-13.865,9.242-22.261,9.242c-17.373,0-31.507-14.134-31.507-31.507v-10.903H145.733z M287.512,169.635v10.903c0,8.431-3.281,16.334-9.245,22.264c-5.961,5.961-13.865,9.242-22.261,9.242c-17.373,0-31.507-14.134-31.507-31.507v-10.903H287.512z M224.695,161.755l0.24-4.784l3.871-77.079h54.386l3.127,62.315l0.981,19.548H224.695z M365.723,161.755l-12.328-81.863h54.233l20.543,81.863H365.723z M429.291,169.635v10.903c0,8.431-3.281,16.334-9.246,22.264c-5.961,5.961-13.865,9.242-22.261,9.242c-17.372,0-31.507-14.134-31.507-31.507v-10.903H429.291z M357.754,161.755H295.19l-3.128-62.315l-0.981-19.548h54.346L357.754,161.755z M358.402,169.635v10.903c0,8.431-3.281,16.334-9.246,22.264c-5.961,5.961-13.865,9.242-22.26,9.242c-17.373,0-31.507-14.134-31.507-31.507v-10.903H358.402z M498.553,161.755h-62.259L415.75,79.892h54.037L498.553,161.755z M43.375,35.671c0-3.592,4.077-6.627,8.9-6.627h407.458c4.823,0,8.9,3.035,8.9,6.627v36.341H43.375V35.671z M42.213,79.892h54.036l-20.547,81.863H13.443L42.213,79.892z M11.831,180.538v-10.903h63.013v10.903c0,8.431-3.281,16.334-9.246,22.264c-5.961,5.961-13.865,9.242-22.261,9.242C25.964,212.045,11.831,197.91,11.831,180.538z M29.899,442.044h452.198v16.509H29.899V442.044z M504.123,482.956H7.877v-16.527h496.247V482.956z"/></svg>