<svg xmlns="http://www.w3.org/2000/svg" viewBox="0 0 24 24"><g id="Duotone"><path fill="#fff" d="M21.5 13.5v-7h-7v7h-2v-6H.5v14h23v-8z"/><path fill="#cce7ff" d="M14.5 11.5h7v2h-7zM11.5 19.5V19H.5v2.5h23v-2z"/><path fill="none" stroke="#1078ff" stroke-linecap="round" stroke-linejoin="round" stroke-miterlimit="10" d="M9.5 21.5h-9v-14h12v4"/><path fill="none" stroke="#1078ff" stroke-linecap="round" stroke-linejoin="round" stroke-miterlimit="10" d="M11.5 13.5h12v8h-12zM14.5 6.5h7v7h-7zM3.5 10.5v-7h6v7"/><path fill="none" stroke="#1078ff" stroke-linecap="round" stroke-linejoin="round" stroke-miterlimit="10" d="M16.5 8.5v-4h3v4M11.5 17.5h12M17.5 21.5v-8"/></g><path id="Frames-24px" fill="none" d="M0 0h24v24H0z"/></svg>