<svg xmlns="http://www.w3.org/2000/svg" id="Layer_1" x="0" y="0" version="1.1" viewBox="0 0 52 52" xml:space="preserve"><path fill="#0096e6" d="M35.025 8.965h-32c-.55 0-1 .45-1 1v24c0 .55.45 1 1 1h5.13c.26 0 .51-.1.69-.28a5.96 5.96 0 0 1 4.13-1.65c1.55 0 3.02.59 4.13 1.65.18.18.43.28.69.28h17.23c.55 0 1-.45 1-1v-24c0-.55-.45-1-1-1zm-1 24h-15.84a7.936 7.936 0 0 0-5.21-1.93c-1.93 0-3.76.68-5.21 1.93h-3.74v-22h30v22z"/><path fill="#fff" d="M34.025 10.965v22h-15.84a7.936 7.936 0 0 0-5.21-1.93c-1.93 0-3.76.68-5.21 1.93h-3.74v-22h30z"/><path fill="#0096e6" d="M38.975 38.965v.02c-.01.54-.46.98-1 .98h-22c-.55 0-1-.45-1-1s.45-1 1-1h22c.55 0 1 .45 1 1zM10.975 38.965v.02c-.01.54-.46.98-1 .98h-3c-.55 0-1-.45-1-1v-5c0-.55.45-1 1-1s1 .45 1 1v4h2c.55 0 1 .45 1 1zM49.975 30.655v8.31c0 .55-.45 1-1 1h-5c-.55 0-1-.45-1-1s.45-1 1-1h4v-7.31a4.4 4.4 0 00-.78-2.5l-6.66-9.59c-.26-.38-.69-.6-1.15-.6h-4.23c-.55 0-1-.45-1-1s.45-1 1-1h4.23c1.12 0 2.16.55 2.79 1.46l6.66 9.59a6.352 6.352 0 011.14 3.64z"/><path fill="#0096e6" d="M44.825 37.965c-.46-1.71-2-2.93-3.85-2.93-1.83 0-3.36 1.2-3.84 2.93-.1.34-.15.7-.16 1.07a4 4 0 0 0 4 4c1.87 0 3.44-1.28 3.87-3.07.09-.32.13-.67.13-1.02-.01-.34-.06-.67-.15-.98zm-1.85 1.07c0 1.1-.9 2-2 2s-2-.9-2-2.05v-.02c.04-1.08.92-1.93 2-1.93 1.07 0 1.93.82 2 1.93v.07z"/><path fill="#d0e8f9" d="M42.975 38.965v.07c0 1.1-.9 2-2 2s-2-.9-2-2.05v-.02c.04-1.08.92-1.93 2-1.93 1.07 0 1.93.82 2 1.93z"/><path fill="#0096e6" d="M16.825 37.965c-.46-1.71-2-2.93-3.85-2.93-1.83 0-3.36 1.2-3.84 2.93-.1.34-.15.7-.16 1.07a4 4 0 0 0 4 4c1.87 0 3.44-1.28 3.87-3.07.09-.32.13-.67.13-1.02-.01-.34-.06-.67-.15-.98zm-1.85 1.07c0 1.1-.9 2-2 2s-2-.9-2-2.05v-.02c.04-1.08.92-1.93 2-1.93 1.07 0 1.93.82 2 1.93v.07z"/><path fill="#0096e6" d="M16.825 37.965c-.46-1.71-2-2.93-3.85-2.93-1.83 0-3.36 1.2-3.84 2.93-.1.34-.15.7-.16 1.07a4 4 0 0 0 4 4c1.87 0 3.44-1.28 3.87-3.07.09-.32.13-.67.13-1.02-.01-.34-.06-.67-.15-.98zm-1.85 1.07c0 1.1-.9 2-2 2s-2-.9-2-2.05v-.02c.04-1.08.92-1.93 2-1.93 1.07 0 1.93.82 2 1.93v.07z"/><path fill="#d0e8f9" d="M14.975 38.965v.07c0 1.1-.9 2-2 2s-2-.9-2-2.05v-.02c.04-1.08.92-1.93 2-1.93 1.07 0 1.93.82 2 1.93z"/><path fill="#d0e8f9" d="M47.975 30.655v7.31h-3.15c-.46-1.71-2-2.93-3.85-2.93-1.83 0-3.36 1.2-3.84 2.93h-20.31c-.46-1.71-2-2.93-3.85-2.93-1.83 0-3.36 1.2-3.84 2.93h-1.16v-3h.18c.26 0 .51-.1.69-.28a5.96 5.96 0 0 1 4.13-1.65c1.55 0 3.02.59 4.13 1.65.18.18.43.28.69.28h17.23c.55 0 1-.45 1-1v-16h3.36c.46 0 .89.22 1.15.6l6.66 9.59c.51.74.78 1.61.78 2.5z"/></svg>