<svg xmlns="http://www.w3.org/2000/svg" xmlns:xlink="http://www.w3.org/1999/xlink" data-name="Layer 1" viewBox="0 0 512 512"><defs><linearGradient id="a" x1="184.486" x2="184.486" y1="36" y2="428.082" gradientUnits="userSpaceOnUse"><stop offset="0" stop-color="#00efd1"/><stop offset="1" stop-color="#00acea"/></linearGradient><linearGradient id="b" x1="256.238" x2="256.238" y1="36" y2="428.082" xlink:href="#a"/><linearGradient id="c" x1="342.023" x2="342.023" y1="36" y2="428.082" xlink:href="#a"/></defs><path fill="url(#a)" d="M184.452,163h.038l0-6.777.07,7.112A78.693,78.693,0,0,0,240.2,28.949,78.2,78.2,0,0,0,184.457,6h-.037a78.8,78.8,0,0,0-78.742,78.792A78.324,78.324,0,0,0,184.452,163Zm.038-143h.03a64.5,64.5,0,1,1,.034,129h-.1a64.5,64.5,0,1,1,.037-129Z"/><path fill="url(#b)" d="M333.763,256.742a124.859,124.859,0,0,0-22.7,2.076A112.871,112.871,0,0,0,202.975,177H166.168C104.143,177,54,227.7,54,289.761V404.538C54,408.4,56.657,412,60.523,412h152.2a125.035,125.035,0,0,0,121.037,94.4c68.768,0,124.714-56.061,124.714-124.829S402.531,256.742,333.763,256.742ZM68,398V289.772C68,235.431,111.847,191,166.18,191h36.783a98.942,98.942,0,0,1,94.5,71.065,125.263,125.263,0,0,0-88.41,119.586A138.757,138.757,0,0,0,210.084,398Zm265.763,94.169A110.714,110.714,0,1,1,444.477,381.456,110.839,110.839,0,0,1,333.763,492.169Z"/><path fill="url(#c)" d="M381.463,374.645a15.454,15.454,0,0,0-11.042,4.683l-6.22,6.36a15.6,15.6,0,0,0-3.841,15.057l-4.44,4.44a1.471,1.471,0,0,1-2.143.049L311.8,363.256c-.018-.017-.087-.089-.105-.106a1.51,1.51,0,0,1,.105-1.987l4.345-4.346a15.577,15.577,0,0,0,15.417-3.923l6.335-6.335a15.566,15.566,0,0,0,0-22.015l-29.362-29.362a15.584,15.584,0,0,0-22.015,0l-6.335,6.335a15.592,15.592,0,0,0-2.768,18.259l-9.5,9.5a35.269,35.269,0,0,0,0,49.878l69.963,69.962a35.269,35.269,0,0,0,49.878,0l9.5-9.251a15.7,15.7,0,0,0,7.43,2.136h.089c4.191-1,8.113-1.936,11.043-4.932l6.221-6.486a15.7,15.7,0,0,0-.123-21.954l-29.361-29.392A15.687,15.687,0,0,0,381.463,374.645Zm-91.379-63.229,6.335-6.335a1.567,1.567,0,0,1,2.216,0L328,334.444a1.566,1.566,0,0,1,0,2.215l-6.335,6.335a1.569,1.569,0,0,1-2.216,0l-29.363-29.362a1.567,1.567,0,0,1,0-2.216ZM362.82,445.445a21.13,21.13,0,0,1-15.039-6.23l-69.963-69.962a21.268,21.268,0,0,1,0-30.079l9-9,18.085,18.086-2.952,2.953a15.586,15.586,0,0,0-.747,21.217c.239.27.488.532.691.731l42.027,42.026a15.477,15.477,0,0,0,21.844-.049l3.052-3.052,18.086,18.085-9.049,9.049A21.134,21.134,0,0,1,362.82,445.445Zm49.212-24.776-6.22,6.36a1.538,1.538,0,0,1-1.112.472,1.628,1.628,0,0,1-1.116-.459l-29.362-29.361a1.573,1.573,0,0,1-.012-2.2l6.22-6.183a1.3,1.3,0,0,1,1.111-.294h.01a1.3,1.3,0,0,1,1.107.281l29.362,29.273A1.467,1.467,0,0,1,412.032,420.669Z"/></svg>