<svg xmlns="http://www.w3.org/2000/svg" width="124" height="124" enable-background="new 0 0 124 124" viewBox="0 0 124 124"><circle cx="61.938" cy="61.862" r="40.107" fill="none" stroke="#60FC7C" stroke-miterlimit="10" stroke-width="4"/><path fill="#60FC7C" fill-rule="evenodd" d="M63.938,34.272c-14.11,0-25.589,11.479-25.589,25.589
		c0,4.964,1.409,9.731,4.087,13.869l-3.888,8.563c-0.357,0.789-0.228,1.715,0.335,2.374c0.431,0.505,1.056,0.784,1.7,0.784
		c0.197,0,0.396-0.025,0.591-0.079l10.711-2.938c3.698,1.977,7.845,3.018,12.053,3.018c14.11,0,25.59-11.479,25.59-25.589
		C89.528,45.752,78.049,34.272,63.938,34.272z M63.938,80.982c-3.737,0-7.414-0.994-10.634-2.875
		c-0.346-0.202-0.735-0.306-1.128-0.306c-0.197,0-0.396,0.026-0.591,0.079l-6.997,1.92l2.438-5.368
		c0.331-0.73,0.246-1.581-0.223-2.231c-2.607-3.613-3.985-7.88-3.985-12.339c0-11.646,9.475-21.12,21.12-21.12
		c11.646,0,21.12,9.475,21.12,21.12C85.059,71.508,75.585,80.982,63.938,80.982z" clip-rule="evenodd"/><path fill="#60FC7C" fill-rule="evenodd" d="M73.777,63.694c-1.072-0.642-2.467-1.357-3.729-0.84
		c-0.969,0.396-1.588,1.913-2.215,2.687c-0.322,0.396-0.706,0.459-1.201,0.26c-3.636-1.447-6.422-3.875-8.428-7.219
		c-0.34-0.52-0.279-0.93,0.131-1.412c0.606-0.713,1.367-1.523,1.531-2.486c0.163-0.961-0.287-2.085-0.686-2.942
		c-0.508-1.094-1.075-2.655-2.172-3.274c-1.008-0.569-2.334-0.25-3.232,0.48c-1.549,1.262-2.297,3.239-2.274,5.199
		c0.007,0.557,0.075,1.112,0.205,1.649c0.313,1.292,0.91,2.5,1.582,3.647c0.507,0.865,1.058,1.705,1.652,2.512
		c1.944,2.642,4.364,4.938,7.165,6.653c1.4,0.857,2.907,1.609,4.469,2.125c1.751,0.578,3.311,1.181,5.201,0.821
		c1.979-0.376,3.932-1.601,4.717-3.509c0.232-0.564,0.35-1.193,0.219-1.79C76.444,65.023,74.774,64.291,73.777,63.694z" clip-rule="evenodd"/></svg>